<?xml version="1.0" encoding="utf-8"?>
<!-- Generator: Adobe Illustrator 18.1.1, SVG Export Plug-In . SVG Version: 6.00 Build 0)  -->
<svg version="1.1" id="Layer_1" xmlns="http://www.w3.org/2000/svg" xmlns:xlink="http://www.w3.org/1999/xlink" x="0px" y="0px"
	 viewBox="0 0 58 58" enable-background="new 0 0 58 58" xml:space="preserve">
<path fill="#FFC40C" d="M43.5,54.8H15.2c-6.6,0-12-5.4-12-12V14.5c0-6.6,5.4-12,12-12h28.2c6.6,0,12,5.4,12,12v28.2
	C55.5,49.3,50.1,54.8,43.5,54.8z"/>
<g id="Road">
	<g>
		<path d="M54.7,26l-42.5,2.3c-1.8,0.1-3.3,1.5-3.4,3.3L7.8,50c-0.1,1.5,0.8,2.9,2.2,3.4l2.4,1c0.4,0.2,0.9,0.3,1.3,0.3l26.9,0.1
			c3.4,0,6.4-2.1,7.4-5.3l6-17.9C54.7,29.3,57.1,25.9,54.7,26z"/>
		<g>
			<path fill="#FFC40C" d="M49.7,26.1l-43,1.4l1,24.7C7.7,52.2,11.3,35.3,49.7,26.1z"/>
			<path fill="#FFC40C" d="M47.3,52.3l0.7,1.5l7.2-26.2C46.4,33,38.4,45.4,47.3,52.3z"/>
		</g>
		<path fill="#FEBC23" d="M42.9,33.5c0,0,3.3-2.8,8.3-4.3L50.5,29c-5.3,1.6-9.6,4-9.7,4.1L42.9,33.5z"/>
		<path fill="#FEBC23" d="M31.9,43.8c0.1-1.6,2.9-4.9,4.4-6.4l-1.7-0.2c-4.1,2.4-6.5,6.5-6.5,6.6L31.9,43.8z"/>
		<path fill="#FEBC23" d="M29.6,54.9c-0.2-1-0.9-3.8,0.7-7.1l-3.6-0.1c-2.8,2.8-5.1,7.3-5.1,7.4L29.6,54.9z"/>
	</g>
</g>
<g id="Trees_2">
	<g>
		<path fill="#FFFFFF" d="M20.4,27.5l-1.5,0.7l-0.2-1.3l0.6-0.6L20.4,27.5z M26.5,42.6l-0.3-0.3l-0.5,0.4l-0.5-0.5l-1.7,1.6l-1.8-2
			l1.1-1.1c-0.4-0.4-0.4-0.8,0-1.2l-4.5-4.8c-0.4,0.3-0.8,0.3-1.2-0.1l-1.1,1.1l-1.8-2l1.7-1.6l-0.5-0.5l0.5-0.4l-0.3-0.3l0.7-0.6
			l0.3,0.3l1.7-1.6c0.6-0.6,2.4-1.3,5.3-2.3c1.2,0.9,2.6,2.2,4.1,3.8c1.5,1.6,2.7,3.1,3.6,4.4c-1.1,2.8-2,4.6-2.6,5.1l-1.7,1.6
			l0.3,0.3L26.5,42.6z M26.5,42.4l0.4-0.4L16.1,30.5l-0.4,0.4l2,2.2c0.3,0,0.5,0.1,0.7,0.3c0.2,0.2,0.3,0.4,0.3,0.7l4.8,5.1
			c0.3,0,0.5,0.1,0.7,0.3c0.2,0.2,0.3,0.4,0.3,0.7L26.5,42.4z M18.6,32.4l1.2-1.2l-1.6-1.7L17,30.7L18.6,32.4z M29.1,38.3
			c0.2-0.3,0.5-0.8,0.9-1.6c0.2-0.4,0.4-1,0.7-1.8c-0.7-1-1.8-2.3-3.4-4c-1.6-1.7-2.8-2.9-3.8-3.6c-0.4,0.1-1,0.3-1.9,0.5
			c-0.4,0.1-1,0.4-1.6,0.7c1.5,1.4,3,3,4.7,4.8C26.3,35.1,27.8,36.8,29.1,38.3z M18.2,34.6c0.4-0.3,0.4-0.7,0-1.1s-0.7-0.4-1.1,0
			c-0.4,0.3-0.4,0.7,0,1.1C17.5,35,17.9,35,18.2,34.6z M25.6,38.2l0.4-0.4l-5.7-6.1l-0.4,0.4L25.6,38.2z M24.8,39l0.4-0.4l-5.7-6.1
			L19,32.9L24.8,39z M24,40.7c0.4-0.3,0.4-0.7,0-1.1s-0.7-0.4-1.1,0c-0.4,0.3-0.4,0.7,0,1.1S23.6,41.1,24,40.7z M26.8,41.1L28,40
			l-1.6-1.7l-1.2,1.2L26.8,41.1z M30.6,39.8l-1.3-0.3l0.8-1.5l1.1,1.2L30.6,39.8z"/>
	</g>
	<g id="Tree">
		<g>
			<g>
				<g>
					<path fill="#FFFFFF" d="M22.3,46.1c0.4,0.3-2.6-0.6-2.6-0.6s-0.8-0.3-1-0.5c-0.2-0.2-2.6-2-2.6-2l0.6,1.4c0,0,1.1,1.5,1.8,1.9
						c0.7,0.4,1.1,1.3,1.1,1.3L18.9,47l-0.8-0.6l-1.7-0.8l-1.1-2l0.1,2.7l0.7,1.3l2,2.5L16.3,49l-0.6-1.2c0,0-0.9-0.9-1.1-1
						c-0.2-0.1-0.2-1.5-0.2-1.5l-0.7-1.6c0,0-1.7,1.7-1.9,1.8c-0.2,0.2-0.9,0.5-0.9,0.5s-0.1,0.8-0.3,0.8c-0.2,0.1-0.7,0.3-0.9,0.7
						L8,48.6l1.6-1.4l0.8-1.4l0.7-0.6l0,0l1-1.1l-0.5,0l-0.8-0.1l-0.9,0.6L8.9,44C8.7,44.1,7,44.6,7,44.6l1.2-1.3l1.2,0.3l1.3-0.3
						l2.2-1.6l0.6-2.1l0.3-5.2l-0.1-2.7l-0.3-2l-0.2-2c0,0-0.3-0.5-0.2-0.9c0.1-0.3-0.3-1-0.3-1L12,24.8l-1.1-0.4l-1.6,0.3l-1.3,1
						c0,0-2.3,0.8-2.5,0.9c-0.2,0.2-1.7,1.1-1.7,1.1L4,27.2l0.6-0.6l1.2-0.6l1.3-0.3L9,24.1l-0.8,0.3l-1.3,0.2l-1.6-0.1
						c0,0-0.5-0.6-0.7-0.7c-0.2-0.2-1.3-1-1.3-1l-0.6-0.4l0.4-0.1l0.8,0.5l0.8,0.3l-0.1-0.8l-0.4-1.2l0.4,0.3l0.3,0.9l0.4,1l0.5,0.9
						l1,0.1L7.7,24l0.9-0.9l1.5-0.1L9,22l-0.7-1l-0.6-1.1l-0.7-1l-2.3-0.4l-1.1-0.3c0,0-1.1-0.2-1.1-0.5C2.7,17.4,4,18,4,18l1.1,0.3
						l0.8-0.2l-0.3-0.7l-0.7-0.9L4.2,16l-0.4-0.8l0.5,0.3L5,16.1l0.9,1l0.8,0.6l0.7,0.5l0.1-0.5l0-1.8l-0.7-1.7l-0.5-1.4l-0.8-1.3
						l-0.6-1.1l0.9,1l0.7,1.1l0.7,1.8l0.7,1.3L8,17l0.3,0.7l0.2-0.9l0.5-1.7l0.4-0.9l0.4-1.6l-0.1-1.5c0.4,0.2,0.4,1.3,0.4,1.3
						l-0.3,1.3l-0.3,1.2l-0.7,3.5l-0.3,1.1l0.3,0.9l0.6,1.2l1.6,0.8l1.9,0.1l-0.5-1.1l-0.5-1.4c0,0-0.3-0.5-0.5-0.5
						c-0.2,0-0.9-0.5-0.9-0.5l-0.7-0.9c0.2-0.2,0.6,0.4,0.6,0.4l0.9,0.5l0.6,0.6l0.5,0.8l0.1-1.4l-0.1-1.5l-0.4-1l-0.5-0.8l-0.6-0.8
						c0.3-0.4,0.5,0.1,0.5,0.1l0.7,1l0.8,1.8L12.8,19l0.6,1l0-1.3l0.4-2.2l-0.4-1.7l-0.2-1.7l-0.7-1.3l-0.9-1.6l-0.8-0.4l-1-1.3
						c0.2-0.2,0.8,0.3,0.8,0.3l0.8,0.8l1,0.3l0.4,1.3l0.5,0.5l0.9-1.9l0.1-1.1L15,6.7c0.2,0.2-0.1,1.1-0.1,1.1l-0.2,1.3l-0.4,1.3
						l-0.5,0.8l-0.1,1.4l0,2.1l0.3,0.8l0.5-0.9l0.6-0.6l0.8-0.9l0.5-1c0,0,0-0.7,0.4-0.7l-0.3,1.4L15.9,14l-0.5,0.6l-0.7,1l-0.5,0.9
						L14,18.6l0.1,2.9l0.3,2l1.2-3.2l1.2-2l0.5-0.7l0.1-1.2l-0.2-1.2l0.2-1l0.2-0.5l0.2-0.5l0.1,1.2l-0.3,0.6l0.2,0.9l0,1.1l0.2,0.5
						l1.1-0.8l1.2-1.8l0.9-1.2l1-2.1l0.1-1.8c0.2,0.1,0.4,1,0.4,1l-0.2,1.1l-1.1,2.1l-0.9,2.3l-0.8,1l0.7-0.1l0.7-0.6l1.1,0l0.9,0
						l0.8-0.4l0.6-0.7c0.1,0.6-0.3,0.9-0.3,0.9s-1.1,0.5-1.3,0.6c-0.2,0.1-0.7,0.2-0.9,0.2l0.7,0.4l1.1,0.2C23.7,18,23.1,18,23.1,18
						l-1-0.4l-0.5,0L21,17.2l-0.6,0.6l-0.8,0.2l0.8,0.4c0,0,0.4,0.2,0.4,0.5c0,0.3,0.9,0.7,0.9,0.7l0.8,0.1l0.8,0
						c-0.4,0.5-0.8,0.5-0.8,0.5l-0.8-0.1l-0.9-0.8l-0.9-0.2L19,18.6l-0.5-0.3l-1.2,0.4l-1,2.4l1.4-0.2l0.5,0.4l0.9,0l0.6-0.5l0,0
						l0.6-0.2c0.2,0.5-0.9,1.3-0.9,1.3l-1.2,0.1l-1.2,0.4l-0.8,2.2l1.8-0.9c0,0,0.8,0.5,0.9,0.4c0.2-0.1,2.1-1,2.1-1l0.9-1.1
						l0.9-0.7l1.2-0.1l0.6-0.6l0.6-0.6c-0.1,0.5-0.1,0.5-0.1,0.5L24.9,21l-0.4,0.6L24,21.8l-0.9,0.3l1.1,0.3l1.5-0.1l1,0.4l0.5,0.5
						l0.9,0.8l0.4,0.1c-1,0.1-1.2-0.3-1.2-0.3l-1.1-0.8l-0.8,0L24,22.9L23.2,23l-0.5-0.2L22,23.3l-0.9,0.5c0,0,0.2,0.2,0.4,0.2
						c0.2,0,0.9,0.1,0.9,0.1l1.2,0.4c0,0,0.3,0,0.4,0.4c0.1,0.3,0.6,1.2,0.6,1.2c-0.3-0.2-0.6-0.4-0.6-0.4L23.7,25l-1-0.3l-1-0.2
						l-0.8,0.1L20,24.3l-1.1,0.5l-1.2,0.4l-1.1,0.9L16.1,27l-0.3,2.4l-0.1,2l-0.2,1.2l0.1,1.9l0.3,2.8l0.5,3.3l0.9,2.1l1.1,1.5
						l1.8,1.3C20.3,45.3,21.6,45.6,22.3,46.1z"/>
					<g>
						<path fill="#FFFFFF" d="M16,23.1l0.4-1.1c0,0,0.9-0.8,1.1-0.5l-0.6,0.3l-0.6,1l-0.4,1.5l-0.5,1.1l-0.1,1.1l-0.5,1.5
							c0,0-0.3,1.3-0.2,1.9c0.1,0.5-0.1,1.3-0.1,1.3l-0.4,2c0-0.6,0.2-2,0.2-2l0-1.7l0.3-1.5l0.4-1.4l0.2-1.3l0.4-1.2l-0.2-0.6l0-1
							c0,0,0.5-1.1,0.5-1.3c0-0.1,0.2-0.6,0.3-0.9c0-0.1,0.1-0.2,0.1-0.2l0.4-1.1l0,0.6l-0.3,0.7l-0.5,1.2l-0.2,0.8L15.5,23l0.3,0.8
							L16,23.1z"/>
						<path fill="#FFFFFF" d="M14,24l-0.6-0.9l0.2-0.8l0-1.2c0,0,0-1.8,0-2c-0.2,0-0.1,0.5-0.1,0.5l-0.2,2.3l-0.4-1.1L13,20.1
							l-0.3-0.6c-0.1,0.2,0.1,0.8,0.1,0.8l0,0.4l-0.3-0.2l-0.2-0.3l0,0.2l0.2,0.4l0.4,0.3l0.3,0.2l0.2,0.8l-0.1,1.1l0.4,0.4l0.2,0.7
							l0.5,0.5l-0.5,1.5l0,1.1l0.2,1.5l0.1-1L14,27.3l0.1-1.1l0.5-1.4l0.2-0.9l0.1-0.8l0.2-0.6l-0.2,0.3l-0.2,0.6l-0.2,0.2l-0.1,0.9
							L14,24z"/>
						<path fill="#FFFFFF" d="M13.2,26.6l0-0.7L13,25.1l-0.3-0.5l-0.7-0.1l-0.5-0.5l-0.7-0.1L10.4,24l-0.8,0.2l-0.9,0.6
							c0.1-0.2,0.8-0.7,0.8-0.7l-0.4-0.3l-0.5,0L8.1,24c0.1-0.2,0.5-0.3,0.5-0.3l0.6-0.2l0.4,0.1l0.4,0.1l0.5-0.1l0.5-0.2l0.7,0.4
							l0.5,0.1l0.4,0.2l-0.2-0.6L12,23.1l-0.7,0l-0.4,0l-0.4-0.2l-0.4-0.5l-0.6-0.5l0.5,0.3l0.6,0.5l0.4,0l1,0l0.5,0.4l0.5,0.6
							l0.1,0.9l0.4,1L13.2,26.6z"/>
						<path fill="#FFFFFF" d="M8.2,19.3l0.1-0.9l0.4-0.7L8.8,17l-0.5,0.9L8,17.7l0-0.6l-0.2-1l0,0.7l-0.1,0.8l0.1,0.8l-0.3-0.2
							l-0.4-0.1l-0.9-0.5L6.4,18L7,18.4l0.3,0.2l0.6,0.7l0.3,0.8c0,0,0.7,1,0.6,0.8C8.6,20.5,8.3,20,8.3,20L8.2,19.3z"/>
						<path fill="#FFFFFF" d="M21.9,22.8l0.5-0.6l0.7-0.5l0.6-0.2c-0.1,0.2-0.3,0.4-0.3,0.4L23,22l-0.2,0.2l0.4,0.1l0.4,0.2l0.5,0.1
							l0.3-0.1c0,0.1-0.5,0.2-0.5,0.2l-0.7-0.1l-0.5-0.3l-0.5,0.4l-0.7,0.4L21.9,22.8z"/>
						<path fill="#FFFFFF" d="M17.5,17l0,0.5L17.3,18l-0.2,0.2c0.1,0.1,0.3,0.1,0.3,0.1l0.7-0.3l0.5,0.1l0.7,0.3l0.7,0.5
							c-0.2-0.4-0.6-0.6-0.6-0.6L19.2,18l0.4-0.2l0.5-0.1l0.5-0.3c-0.2,0-0.4,0-0.4,0l-0.4,0.2l-0.5,0.1L19,17.7l0.3-0.5l0.4-0.6
							l0.4-0.4l0.3-1c-0.1-0.1-0.1-0.1-0.1-0.1l-0.2,0.4L19.8,16l-0.5,0.8l-0.2,0.3l-0.4,0.5l-0.5,0.1l-0.4,0L17.5,17z"/>
						<polygon fill="#FFFFFF" points="14,34.5 14.2,36.5 14.5,38.7 14.3,39.8 14.4,40.8 14.6,41.5 16,43.3 14.6,42.2 14.8,43.7 
							14.9,45.3 14.4,43.6 14.1,41.8 13.1,43.7 12.2,44.3 13.5,42.4 12.2,43.2 11.4,43.3 12.7,42.3 13.8,41.7 14,40.7 14.1,38.6 
							14,37.2 						"/>
					</g>
					<g>
						<polygon fill="#FFFFFF" points="1.9,23 2.3,22 2.6,21.7 3.2,20.9 3.9,20.8 5.8,21.7 6.9,21 8.5,21.7 9.4,20.7 10.9,20.6 
							11.9,21.1 10.8,21.3 9.8,21.8 9.5,23.4 8.2,24 7.1,25.3 6.5,27.1 4.7,27.4 3.5,28 2.5,27.9 1.7,27 0.7,26.5 0,26.2 0.1,25.5 
							0.7,25.2 1.8,25.3 2.7,24.7 3.9,25.4 4.5,24.5 3.9,24.1 3.2,23.3 2.4,23.9 						"/>
						<path fill="#FFFFFF" d="M2,18.5l-0.6-0.9l0.2-1l0.7-0.5l0.8,0l0.2-0.9l0.1-0.9l0.8-1.1l0.5-1.8l0.3-0.9l0.4-0.6l0.9,0.3
							l1.4-0.7l0.4-1.6l1-1.4l1.8-0.7l1.8,1.2c0,0,0.5-1.3,0.8-1.4C13.6,5.5,14.9,5,14.9,5l1.6,0.2l1.6,1.5l0.6,3.1l0.9-0.5l0.8,0.4
							l0.1,1.1l-0.6,1.1l-1.1-0.1l-0.7,1.1l-0.5,1.7l-1.2,1.3l-1,0.4l-0.8,2.1l-0.5,0.7l-1.6,0.1l-0.6,0.6l-0.6,0.1l-1-0.3l-0.7-0.5
							l-0.3-1L9.6,17l1.1-0.7l1.2-0.1l1.2-1.2l-0.4-0.5l-0.8,0.6l-1,0.2l-0.7,0.2l-0.8,0.6l-0.3,0.7L8.7,18l-0.9,0.4l-0.3-0.2
							L6.4,18l-1,1.1l-1,0.1l-0.3-1l0.4-1.2l0.8-0.4l0.5-0.4l1.3-0.5l0.4-0.7L8,14.2l0.3-0.9l-0.5,0.8l-1,1l-1,0.3L5,16.1l-1,0.4
							L3.3,18C3.3,18,2.6,18.7,2,18.5z"/>
						<path fill="#FFFFFF" d="M18.3,16.2l0.3-1l1.3-0.6l0.2-0.9l0.9-1.2l0.1-0.9l-0.3-1.3l0.4-0.8l0.9-0.2l0.8,0.5l0.8,1.5l-0.1,1.4
							l0.5,1.8l1,1.1l1,0.6l0.6,2l-0.2,1.4l1,1.1l0.2,1.5c0,0,0.9,0.8,0.9,1c0,0.3,0.1,1,0.1,1l-0.5,0.5l-1,0.4l-0.9-0.9l-0.7,0.1
							l-1,0l-1,0l0.8,1.5l0,1.1L24,26.9L23.3,26l-0.8-0.4l-1.6-0.4l-0.7,0.4c0,0-0.8,0.5-1.1,0.4c-0.3-0.1-0.9-0.7-0.9-0.7l-0.5-0.9
							l-0.9-0.9l0.1-0.7l0.6-0.4l0.7,0.3l1.1,0.1l0.4-0.7l-0.2-1l-0.4-0.7l-0.8-0.1l-1.1,0c0,0-0.4,0.1-0.7,0
							c-0.2-0.1-0.5-0.2-0.5-0.2l-0.3-0.8l0.3-0.8l0.9-0.7l0.7-0.2l1.9,1.2l0.9,1l0.7-0.5l0.6-1l-0.7,0.4l-0.5,0.3
							c0,0-0.3-0.1-0.4-0.5c-0.1-0.3-1.1-0.5-1.1-0.5l-0.4-0.3l-0.2-0.4l-0.5-0.6L18.3,16.2z"/>
					</g>
				</g>
			</g>
		</g>
	</g>
</g>
<path stroke="#FFC40C" stroke-width="0.9186" stroke-miterlimit="10" d="M54.8,28.8c0,7.2-2.5,13.3-7.6,18.4S36,54.8,28.8,54.8
	s-13.3-2.5-18.4-7.6S2.8,36,2.8,28.8s2.5-13.3,7.6-18.4s11.2-7.6,18.4-7.6s13.3,2.5,18.4,7.6S54.8,21.6,54.8,28.8z M42.3,45.9
	L11.7,15.3C8.5,19.2,7,23.7,7,28.8c0,6,2.1,11.2,6.4,15.4s9.4,6.4,15.4,6.4C33.9,50.6,38.4,49.1,42.3,45.9z M50.7,28.8
	c0-6-2.1-11.2-6.4-15.4s-9.4-6.4-15.4-6.4c-5.4,0-10.1,1.7-14.2,5.2L45.4,43C48.9,38.9,50.7,34.2,50.7,28.8z"/>
</svg>
