<?xml version="1.0" encoding="utf-8"?>
<!-- Generator: Adobe Illustrator 18.1.1, SVG Export Plug-In . SVG Version: 6.00 Build 0)  -->
<svg version="1.1" id="Layer_1" xmlns="http://www.w3.org/2000/svg" xmlns:xlink="http://www.w3.org/1999/xlink" x="0px" y="0px"
	 viewBox="0 0 58 58" enable-background="new 0 0 58 58" xml:space="preserve">
<path fill="#FFC40C" d="M43.5,54.8H15.2c-6.6,0-12-5.4-12-12V14.5c0-6.6,5.4-12,12-12h28.2c6.6,0,12,5.4,12,12v28.2
	C55.5,49.3,50.1,54.8,43.5,54.8z"/>
<path fill="none" stroke="#FFFFFF" stroke-width="0.5" d="M51.3,20c0,8.2-2,15.1-6.1,20.7c-3.9,5.4-9.1,8.8-15.6,10.4
	c-6.5-1.5-11.7-5-15.6-10.4C10,35.1,8,28.2,8,20c0-3,0.6-5.8,1.9-8.6c1-2.1,2.1-3.8,3.5-5.1c3,1.9,6,2.8,8.9,2.8s5.4-0.9,7.3-2.7
	c1.9,1.8,4.4,2.7,7.3,2.7s5.9-0.9,8.9-2.8c1.4,1.3,2.5,3,3.5,5.1C50.6,14.2,51.3,17.1,51.3,20z"/>
<path fill="none" stroke="#FFFFFF" stroke-width="1.0368" d="M53.4,19.2c0,9-2.2,16.6-6.7,22.8c-4.3,5.9-10,9.7-17.1,11.4
	c-7.1-1.7-12.8-5.5-17.1-11.4c-4.5-6.2-6.7-13.8-6.7-22.8c0-3.3,0.7-6.4,2.1-9.4c1.1-2.3,2.4-4.2,3.8-5.6c3.3,2,6.6,3.1,9.8,3.1
	s5.9-1,8-3c2.1,2,4.8,3,8,3s6.5-1,9.8-3.1c1.5,1.4,2.8,3.3,3.8,5.6C52.7,12.7,53.4,15.9,53.4,19.2z"/>
<polygon fill="#FFFFFF" points="19.5,20.3 13.3,20.7 13.3,19.8 "/>
<polygon fill="#FFFFFF" points="19.7,18.2 14.2,15.5 14.6,14.7 "/>
<polygon fill="#FFFFFF" points="22.9,17.6 19.5,12.5 20.3,12.1 "/>
<rect x="20.2" y="19.1" fill="#FFFFFF" width="17.9" height="2.5"/>
<rect x="20.6" y="19.5" fill="#0000FF" width="5.6" height="1.6"/>
<polygon fill="#FFFFFF" points="26.3,11.6 25.8,17.7 25.4,11.6 "/>
<polygon fill="#FFFFFF" points="32.9,11.6 32.5,17.7 32,11.6 "/>
<rect x="32" y="19.5" fill="#FF0000" width="5.6" height="1.6"/>
<polygon fill="#FFFFFF" points="38.8,12.5 35.3,17.6 38,12.1 "/>
<rect x="37.3" y="32.9" fill="none" width="4.1" height="2.9"/>
<polygon fill="#FFFFFF" points="44.1,15.5 38.5,18.2 43.6,14.7 "/>
<polygon fill="#FFFFFF" points="45,20.7 38.8,20.3 45,19.8 "/>
<path fill="#FFFFFF" d="M16.9,27.9L16,30.5l-1.8-1.2v-1.4H16.9z M42.3,37.7h-0.7v1.1h-1.2v4h-4.5v-2.6c-0.9,0-1.4-0.5-1.5-1.3h-11
	c-0.1,0.9-0.6,1.3-1.5,1.3v2.6h-4.5v-4h-1.2v-1.1h-0.7v-1.5h0.7v-4c0-1.4,1.1-4.4,3.3-9.1c2.5-0.4,5.7-0.7,9.4-0.7s6.9,0.2,9.4,0.7
	c2.2,4.6,3.3,7.7,3.3,9.1v4h0.7V37.7z M42.1,37.5v-1H15.7v1h5c0.3-0.3,0.7-0.5,1.1-0.5s0.8,0.2,1.2,0.5h11.8
	c0.3-0.3,0.7-0.5,1.1-0.5c0.5,0,0.8,0.2,1.2,0.5H42.1z M20.9,35.6v-2.8h-4v2.8H20.9z M40.1,29.6c-0.2-0.6-0.5-1.6-1-2.9
	c-0.3-0.7-0.8-1.7-1.5-2.9c-2-0.3-4.9-0.4-8.8-0.4c-3.8,0-6.8,0.1-8.8,0.4c-0.3,0.6-0.8,1.6-1.5,2.9c-0.3,0.7-0.6,1.6-1,2.9
	c3.4-0.2,7.2-0.2,11.2-0.2C32.9,29.3,36.7,29.4,40.1,29.6z M23.1,38.6c0-0.8-0.4-1.3-1.3-1.3c-0.8,0-1.3,0.4-1.3,1.3
	s0.4,1.3,1.3,1.3C22.7,39.9,23.1,39.5,23.1,38.6z M35.9,33.7v-0.9h-14v0.9H35.9z M35.9,35.6v-0.9h-14v0.9H35.9z M37.2,38.6
	c0-0.8-0.4-1.3-1.3-1.3c-0.8,0-1.3,0.4-1.3,1.3s0.4,1.3,1.3,1.3C36.8,39.9,37.2,39.5,37.2,38.6z M40.9,35.6v-2.8h-4v2.8H40.9z
	 M43.6,29.3l-1.8,1.2l-0.9-2.6h2.7V29.3z"/>
</svg>
