<?xml version="1.0" encoding="utf-8"?>
<!-- Generator: Adobe Illustrator 18.1.1, SVG Export Plug-In . SVG Version: 6.00 Build 0)  -->
<svg version="1.1" id="Layer_2" xmlns="http://www.w3.org/2000/svg" xmlns:xlink="http://www.w3.org/1999/xlink" x="0px" y="0px"
	 viewBox="0 0 58 58" enable-background="new 0 0 58 58" xml:space="preserve">
<path fill="#3FA9F5" d="M28.8,2.8C14.3,2.8,2.6,14.6,2.6,29.1c0,14.5,11.8,26.2,26.2,26.2s26.2-11.8,26.2-26.2
	C55.1,14.6,43.3,2.8,28.8,2.8z"/>
<g id="Home_-_Grey" display="none">
	<path display="inline" fill="#FFFFFF" d="M43.8,27.2L38.4,23v-6.9h-3.9V20l-5.7-4.3l-15,11.5l2.4,3.1v0l1.6-1.2v14.2h22.1V29
		l1.6,1.2L43.8,27.2z M37.7,41.1h-5v-8.2h-7.8v8.2h-5V27.6l8.9-6.8l8.9,6.8V41.1z"/>
</g>
<g id="Layer_1">
	<g>
		<path fill="#FFFFFF" d="M13.5,24.9l-1.1,3.3l-2.3-1.5v-1.8H13.5z M45,37.1h-0.9v1.3h-1.5v4.9H37v-3.2c-1.1,0-1.7-0.6-1.9-1.7H21.6
			c-0.2,1.1-0.8,1.6-1.9,1.7v3.2h-5.6v-4.9h-1.5v-1.3h-0.9v-1.9h0.9v-4.9c0-1.7,1.4-5.5,4.1-11.2c3.1-0.5,7-0.8,11.6-0.8
			c4.7,0,8.5,0.3,11.7,0.8c2.7,5.7,4.1,9.5,4.1,11.2v4.9H45V37.1z M44.7,36.8v-1.2H12.1v1.2h6.2c0.4-0.4,0.8-0.6,1.4-0.6
			c0.6,0,1,0.2,1.4,0.6h14.6c0.4-0.4,0.8-0.6,1.4-0.6s1,0.2,1.4,0.6H44.7z M18.5,34.5V31h-4.9v3.5H18.5z M42.2,27
			c-0.2-0.7-0.6-1.9-1.2-3.5c-0.4-0.9-1-2.1-1.9-3.6c-2.5-0.4-6.1-0.5-10.8-0.5c-4.7,0-8.4,0.2-10.8,0.5c-0.4,0.7-1,1.9-1.9,3.6
			c-0.4,0.8-0.8,2-1.2,3.5c4.3-0.2,8.9-0.3,13.9-0.3C33.4,26.7,38,26.8,42.2,27z M21.2,38.2c0-1-0.5-1.6-1.6-1.6
			c-1,0-1.6,0.5-1.6,1.6c0,1,0.5,1.6,1.6,1.6C20.7,39.7,21.2,39.2,21.2,38.2z M37,32.1V31H19.7v1.2H37z M37,34.5v-1.1H19.7v1.1H37z
			 M38.6,38.2c0-1-0.5-1.6-1.6-1.6c-1,0-1.6,0.5-1.6,1.6c0,1,0.5,1.6,1.6,1.6C38.1,39.7,38.6,39.2,38.6,38.2z M43.2,34.5V31h-4.9
			v3.5H43.2z M46.6,26.7l-2.3,1.5l-1.1-3.3h3.4V26.7z"/>
	</g>
</g>
</svg>
