<?xml version="1.0" encoding="utf-8"?>
<!-- Generator: Adobe Illustrator 18.1.1, SVG Export Plug-In . SVG Version: 6.00 Build 0)  -->
<svg version="1.1" xmlns="http://www.w3.org/2000/svg" xmlns:xlink="http://www.w3.org/1999/xlink" x="0px" y="0px"
	 viewBox="0 0 58 58" enable-background="new 0 0 58 58" xml:space="preserve">
<g id="Layer_1">
	<g id="Plus">
	</g>
</g>
<g id="Layer_3">
	<g id="Minus">
	</g>
</g>
<g id="Layer_5">
	<path fill="#26BF4D" d="M28.5,2.1C14,2.1,2.2,13.8,2.2,28.3c0,14.5,11.8,26.2,26.2,26.2s26.2-11.8,26.2-26.2
		C54.8,13.8,43,2.1,28.5,2.1z"/>
	<g id="Children">
	</g>
	<g id="Restrooms">
	</g>
	<g id="User_-_Orange">
		<g>
			<path fill="none" stroke="#FFFFFF" d="M41.1,9.2c2,0,3.6,1.6,3.6,3.6c0,2-1.6,3.6-3.6,3.6c-2,0-3.6-1.6-3.6-3.6
				C37.5,10.8,39.1,9.2,41.1,9.2"/>
			<path fill="none" stroke="#FFFFFF" d="M44,16.1c-0.8,0.7-1.8,1.1-2.9,1.1c-1.1,0-2.2-0.4-2.9-1.1c-2.1,1.1-3.5,3.4-3.5,6h13
				C47.5,19.5,46.1,17.2,44,16.1z"/>
		</g>
	</g>
	<polygon fill="#FFFFFF" points="32.7,14.3 24.3,14.3 24.3,24.1 14.5,24.1 14.5,32.5 24.3,32.5 24.3,42.3 32.7,42.3 32.7,32.5 
		42.5,32.5 42.5,24.1 32.7,24.1 	"/>
</g>
</svg>
