<?xml version="1.0" encoding="utf-8"?>
<!-- Generator: Adobe Illustrator 18.1.1, SVG Export Plug-In . SVG Version: 6.00 Build 0)  -->
<svg version="1.1" id="Layer_1" xmlns="http://www.w3.org/2000/svg" xmlns:xlink="http://www.w3.org/1999/xlink" x="0px" y="0px"
	 viewBox="0 0 58 58" enable-background="new 0 0 58 58" xml:space="preserve">
<path fill="#663091" d="M43.5,54.8H15.2c-6.6,0-12-5.4-12-12V14.5c0-6.6,5.4-12,12-12h28.2c6.6,0,12,5.4,12,12v28.2
	C55.5,49.3,50.1,54.8,43.5,54.8z"/>
<path fill="#FFFFFF" d="M52.9,47.8h-1.6c0-2.3-1.6-4.1-6.8-5.5c-2.2-0.6-6-1.5-13.5-2.6c-5.2-0.8-7.8-1.6-7.8-2.4
	c0-1.3-1.8-2.4,4.6-3.2h-6.2c-6.4,0.6-13.6,1.7-13.6,3.4c0,1.5-0.7,2,2.5,3.8c3.3,1.5,3.8,1.6,7.2,2.4c3.7,1.1,9.4,2.5,9.4,4.1
	l-21,0V26.1h9.5v-5.5l-1.3,1l-2.6-3.7L29.5,4.2l5.4,4.1V4.2h4.8v7.9l7.4,5.8l-2.6,3.7l-1.3-1v5.5h9.6V47.8z"/>
<polygon fill="#663091" points="45.8,17.9 38.9,12.6 38.9,4.9 35.6,4.9 35.6,10 29.5,5.2 13.1,17.9 14.6,20.1 16.6,18.4 16.6,33.9 
	21.6,33.9 21.6,21.3 27.7,21.3 27.7,33.9 42.4,33.9 42.4,18.4 44.3,20.1 "/>
<rect x="31.3" y="21.3" fill="#FFFFFF" width="8.1" height="7.6"/>
<path fill="#FFFFFF" d="M30,45.2l-0.5,1.5l-1-0.7v-0.8H30z M44.3,50.7h-0.4v0.6h-0.7v2.2h-2.5v-1.5c-0.5,0-0.8-0.3-0.9-0.8h-6.1
	c-0.1,0.5-0.4,0.7-0.9,0.8v1.5h-2.5v-2.2h-0.7v-0.6h-0.4v-0.9h0.4v-2.2c0-0.8,0.6-2.5,1.9-5.1c1.4-0.2,3.2-0.4,5.3-0.4
	s3.9,0.1,5.3,0.4c1.2,2.6,1.8,4.3,1.8,5.1v2.2h0.4V50.7z M44.1,50.6v-0.6H29.4v0.6h2.8c0.2-0.2,0.4-0.3,0.6-0.3s0.5,0.1,0.6,0.3h6.6
	c0.2-0.2,0.4-0.3,0.6-0.3c0.3,0,0.5,0.1,0.6,0.3H44.1z M32.3,49.6V48H30v1.6H32.3z M43,46.2c-0.1-0.3-0.3-0.9-0.5-1.6
	c-0.2-0.4-0.5-1-0.8-1.6c-1.1-0.2-2.8-0.2-4.9-0.2c-2.1,0-3.8,0.1-4.9,0.2c-0.2,0.3-0.5,0.9-0.8,1.6c-0.2,0.4-0.4,0.9-0.6,1.6
	c1.9-0.1,4-0.1,6.3-0.1C39,46,41.1,46.1,43,46.2z M33.5,51.2c0-0.5-0.2-0.7-0.7-0.7s-0.7,0.2-0.7,0.7s0.2,0.7,0.7,0.7
	S33.5,51.7,33.5,51.2z M40.7,48.5V48h-7.8v0.5H40.7z M40.7,49.6V49h-7.8v0.5H40.7z M41.4,51.2c0-0.5-0.2-0.7-0.7-0.7
	S40,50.8,40,51.2s0.2,0.7,0.7,0.7S41.4,51.7,41.4,51.2z M43.5,49.6V48h-2.2v1.6H43.5z M45,46l-1,0.7l-0.5-1.5H45V46z"/>
</svg>
