<?xml version="1.0" encoding="utf-8"?>
<!-- Generator: Adobe Illustrator 18.1.1, SVG Export Plug-In . SVG Version: 6.00 Build 0)  -->
<svg version="1.1" xmlns="http://www.w3.org/2000/svg" xmlns:xlink="http://www.w3.org/1999/xlink" x="0px" y="0px"
	 viewBox="0 0 58 58" enable-background="new 0 0 58 58" xml:space="preserve">
<g id="Layer_1">
</g>
<g id="Layer_2">
	<path fill="#3FA9F5" d="M28.8,2.8C14.3,2.8,2.6,14.6,2.6,29.1c0,14.5,11.8,26.2,26.2,26.2s26.2-11.8,26.2-26.2
		C55.1,14.6,43.3,2.8,28.8,2.8z"/>
	<g id="Home_-_Grey">
		<path fill="#FFFFFF" d="M43.8,27.2L38.4,23v-6.9h-3.9V20l-5.7-4.3l-15,11.5l2.4,3.1v0l1.6-1.2v14.2h22.1V29l1.6,1.2L43.8,27.2z
			 M37.7,41.1h-5v-8.2h-7.8v8.2h-5V27.6l8.9-6.8l8.9,6.8V41.1z"/>
	</g>
</g>
</svg>
