<?xml version="1.0" encoding="utf-8"?>
<!-- Generator: Adobe Illustrator 18.1.1, SVG Export Plug-In . SVG Version: 6.00 Build 0)  -->
<svg version="1.1" id="Layer_1" xmlns="http://www.w3.org/2000/svg" xmlns:xlink="http://www.w3.org/1999/xlink" x="0px" y="0px"
	 viewBox="0 0 58 58" enable-background="new 0 0 58 58" xml:space="preserve">
<path fill="#663091" d="M43.4,55.2H15.1c-6.6,0-12-5.4-12-12V15c0-6.6,5.4-12,12-12h28.2c6.6,0,12,5.4,12,12v28.2
	C55.4,49.8,50,55.2,43.4,55.2z"/>
<g id="Children">
	<g>
		<g>
			<g>
				<polygon fill="#FFFFFF" stroke="#000000" stroke-width="0.1756" points="18,7.9 16.3,10.9 17.2,10.8 18.9,8 				"/>
				<polygon fill="#FFFFFF" stroke="#000000" stroke-width="0.1756" points="21.6,7.9 23.4,10.9 22.5,10.9 20.7,8 				"/>
				<polygon fill="#FFFFFF" stroke="#000000" stroke-width="0.1756" points="18.6,12.4 18.6,7.9 21.1,7.9 21.1,12.6 21.1,12.6 
					21.1,16.4 20.2,16.4 20.2,12.5 19.4,12.5 19.4,16.4 18.6,16.4 18.6,12.4 				"/>
				<g>
					<circle fill="#FFFFFF" stroke="#000000" stroke-width="0.1756" cx="19.8" cy="6.9" r="1.1"/>
				</g>
			</g>
		</g>
		<g>
			<g>
				<polygon fill="#FFFFFF" stroke="#000000" stroke-width="0.1756" points="11.7,7.9 10,10.9 10.9,10.8 12.6,8 				"/>
				<polygon fill="#FFFFFF" stroke="#000000" stroke-width="0.1756" points="15.3,7.9 17.1,10.9 16.2,10.9 14.4,8 				"/>
				<polygon fill="#FFFFFF" stroke="#000000" stroke-width="0.1756" points="12.3,12.4 12.3,7.9 14.8,7.9 14.8,12.6 14.8,12.6 
					14.8,16.4 13.9,16.4 13.9,12.5 13.1,12.5 13.1,16.4 12.3,16.4 12.3,12.4 				"/>
				<g>
					<circle fill="#FFFFFF" stroke="#000000" stroke-width="0.1756" cx="13.5" cy="6.9" r="1.1"/>
				</g>
			</g>
		</g>
		<g>
			<g>
				<polygon fill="#FFFFFF" stroke="#000000" stroke-width="0.1756" points="24.2,7.9 22.6,10.8 23.5,10.8 25.1,8 				"/>
				<polygon fill="#FFFFFF" stroke="#000000" stroke-width="0.1756" points="27.8,7.9 29.5,10.9 28.6,10.8 26.9,8 				"/>
				<polygon fill="#FFFFFF" stroke="#000000" stroke-width="0.1756" points="24.7,12.4 24.7,7.9 27.2,7.9 27.2,12.6 27.2,12.6 
					27.2,16.4 26.3,16.4 26.3,12.5 25.6,12.5 25.6,16.4 24.7,16.4 24.7,12.4 				"/>
				<g>
					<circle fill="#FFFFFF" stroke="#000000" stroke-width="0.1756" cx="26" cy="6.9" r="1.1"/>
				</g>
			</g>
		</g>
	</g>
	<g>
		<g>
			<g>
				<polygon fill="#FFFFFF" stroke="#000000" stroke-width="0.1756" points="36.6,7.8 34.9,10.7 35.8,10.7 37.5,7.8 				"/>
				<polygon fill="#FFFFFF" stroke="#000000" stroke-width="0.1756" points="40.2,7.8 42,10.7 41.1,10.7 39.4,7.8 				"/>
				<polygon fill="#FFFFFF" stroke="#000000" stroke-width="0.1756" points="37.2,12.3 37.2,7.8 39.7,7.8 39.7,12.4 39.7,12.4 
					39.7,16.3 38.8,16.3 38.8,12.4 38.1,12.4 38.1,16.3 37.2,16.3 37.2,12.3 				"/>
				<g>
					<circle fill="#FFFFFF" stroke="#000000" stroke-width="0.1756" cx="38.5" cy="6.7" r="1.1"/>
				</g>
			</g>
		</g>
		<g>
			<g>
				<polygon fill="#FFFFFF" stroke="#000000" stroke-width="0.1756" points="30.3,7.8 28.6,10.7 29.5,10.7 31.2,7.8 				"/>
				<polygon fill="#FFFFFF" stroke="#000000" stroke-width="0.1756" points="33.9,7.8 35.7,10.7 34.8,10.7 33,7.8 				"/>
				<polygon fill="#FFFFFF" stroke="#000000" stroke-width="0.1756" points="30.9,12.3 30.9,7.8 33.4,7.8 33.4,12.4 33.4,12.4 
					33.4,16.3 32.5,16.3 32.5,12.4 31.8,12.4 31.8,16.3 30.9,16.3 30.9,12.3 				"/>
				<g>
					<circle fill="#FFFFFF" stroke="#000000" stroke-width="0.1756" cx="32.2" cy="6.7" r="1.1"/>
				</g>
			</g>
		</g>
		<g>
			<g>
				<polygon fill="#FFFFFF" stroke="#000000" stroke-width="0.1756" points="42.8,7.8 41.2,10.7 42.1,10.7 43.7,7.8 				"/>
				<polygon fill="#FFFFFF" stroke="#000000" stroke-width="0.1756" points="46.4,7.8 48.1,10.7 47.2,10.7 45.5,7.8 				"/>
				<polygon fill="#FFFFFF" stroke="#000000" stroke-width="0.1756" points="43.3,12.3 43.3,7.8 45.8,7.8 45.8,12.4 45.8,12.4 
					45.8,16.3 44.9,16.3 44.9,12.4 44.2,12.4 44.2,16.3 43.3,16.3 43.3,12.3 				"/>
				<g>
					<circle fill="#FFFFFF" stroke="#000000" stroke-width="0.1756" cx="44.6" cy="6.7" r="1.1"/>
				</g>
			</g>
		</g>
	</g>
	<g>
		<g>
			<g>
				<g>
					<polygon fill="#FFFFFF" stroke="#000000" stroke-width="0.2653" points="17.1,17.6 14.5,22.1 15.8,22.1 18.5,17.7 					"/>
					<polygon fill="#FFFFFF" stroke="#000000" stroke-width="0.2653" points="22.6,17.6 25.2,22.1 23.8,22.1 21.2,17.7 					"/>
					<polygon fill="#FFFFFF" stroke="#000000" stroke-width="0.2653" points="18,24.4 18,17.7 21.7,17.7 21.7,24.7 21.7,24.7 
						21.7,30.5 20.4,30.5 20.4,24.6 19.3,24.6 19.3,30.5 18,30.5 18,24.4 					"/>
					<g>
						<circle fill="#FFFFFF" stroke="#000000" stroke-width="0.2653" cx="19.9" cy="16" r="1.6"/>
					</g>
				</g>
			</g>
			<g>
				<g>
					<polygon fill="#FFFFFF" stroke="#000000" stroke-width="0.2653" points="7.6,17.6 5,22.1 6.3,22.1 8.9,17.7 					"/>
					<polygon fill="#FFFFFF" stroke="#000000" stroke-width="0.2653" points="13.1,17.6 15.7,22.1 14.3,22.1 11.7,17.7 					"/>
					<polygon fill="#FFFFFF" stroke="#000000" stroke-width="0.2653" points="8.4,24.4 8.4,17.7 12.2,17.7 12.2,24.7 12.2,24.7 
						12.2,30.5 10.9,30.5 10.9,24.6 9.8,24.6 9.8,30.5 8.4,30.5 8.4,24.4 					"/>
					<g>
						<circle fill="#FFFFFF" stroke="#000000" stroke-width="0.2653" cx="10.4" cy="16" r="1.6"/>
					</g>
				</g>
			</g>
			<g>
				<g>
					<polygon fill="#FFFFFF" stroke="#000000" stroke-width="0.2653" points="26.4,17.6 24,22.1 25.4,22.1 27.8,17.7 					"/>
					<polygon fill="#FFFFFF" stroke="#000000" stroke-width="0.2653" points="31.9,17.6 34.5,22.1 33.2,22.1 30.5,17.7 					"/>
					<polygon fill="#FFFFFF" stroke="#000000" stroke-width="0.2653" points="27.3,24.4 27.3,17.7 31,17.7 31,24.7 31,24.7 31,30.5 
						29.7,30.5 29.7,24.6 28.6,24.6 28.6,30.5 27.3,30.5 27.3,24.4 					"/>
					<g>
						<circle fill="#FFFFFF" stroke="#000000" stroke-width="0.2653" cx="29.2" cy="16" r="1.6"/>
					</g>
				</g>
			</g>
		</g>
		<g>
			<g>
				<polygon fill="#FFFFFF" stroke="#000000" stroke-width="0.2653" points="45.5,17.6 42.8,22.1 44.2,22.1 46.8,17.7 				"/>
				<polygon fill="#FFFFFF" stroke="#000000" stroke-width="0.2653" points="50.9,17.6 53.5,22.1 52.2,22.1 49.6,17.7 				"/>
				<polygon fill="#FFFFFF" stroke="#000000" stroke-width="0.2653" points="46.3,24.4 46.3,17.7 50.1,17.7 50.1,24.7 50.1,24.7 
					50.1,30.5 48.7,30.5 48.7,24.6 47.6,24.6 47.6,30.5 46.3,30.5 46.3,24.4 				"/>
				<g>
					<circle fill="#FFFFFF" stroke="#000000" stroke-width="0.2653" cx="48.2" cy="16" r="1.6"/>
				</g>
			</g>
		</g>
		<g>
			<g>
				<polygon fill="#FFFFFF" stroke="#000000" stroke-width="0.2653" points="35.9,17.6 33.3,22.1 34.7,22.1 37.3,17.7 				"/>
				<polygon fill="#FFFFFF" stroke="#000000" stroke-width="0.2653" points="41.4,17.6 44,22.1 42.7,22.1 40,17.7 				"/>
				<polygon fill="#FFFFFF" stroke="#000000" stroke-width="0.2653" points="36.8,24.4 36.8,17.7 40.5,17.7 40.5,24.7 40.5,24.7 
					40.5,30.5 39.2,30.5 39.2,24.6 38.1,24.6 38.1,30.5 36.8,30.5 36.8,24.4 				"/>
				<g>
					<circle fill="#FFFFFF" stroke="#000000" stroke-width="0.2653" cx="38.7" cy="16" r="1.6"/>
				</g>
			</g>
		</g>
	</g>
	<g>
		<g>
			<g>
				<polygon fill="#FFFFFF" stroke="#000000" stroke-width="0.4328" points="24.4,27.1 20.1,34.5 22.3,34.5 26.6,27.4 				"/>
				<polygon fill="#FFFFFF" stroke="#000000" stroke-width="0.4328" points="33.3,27.1 37.6,34.5 35.3,34.5 31.1,27.4 				"/>
				<polygon fill="#FFFFFF" stroke="#000000" stroke-width="0.4328" points="25.8,38.3 25.8,27.3 31.9,27.3 31.9,38.7 31.9,38.7 
					31.9,48.3 29.7,48.3 29.7,38.6 27.9,38.6 27.9,48.3 25.8,48.3 25.8,38.3 				"/>
				<g>
					<circle fill="#FFFFFF" stroke="#000000" stroke-width="0.4328" cx="28.9" cy="24.7" r="2.7"/>
				</g>
			</g>
		</g>
		<g>
			<g>
				<polygon fill="#FFFFFF" stroke="#000000" stroke-width="0.4328" points="8.8,27.1 4.5,34.5 6.8,34.5 11,27.4 				"/>
				<polygon fill="#FFFFFF" stroke="#000000" stroke-width="0.4328" points="17.8,27.1 22,34.5 19.8,34.5 15.6,27.4 				"/>
				<polygon fill="#FFFFFF" stroke="#000000" stroke-width="0.4328" points="10.2,38.3 10.2,27.3 16.4,27.3 16.4,38.7 16.4,38.7 
					16.4,48.3 14.2,48.3 14.2,38.6 12.4,38.6 12.4,48.3 10.2,48.3 10.2,38.3 				"/>
				<g>
					<circle fill="#FFFFFF" stroke="#000000" stroke-width="0.4328" cx="13.4" cy="24.7" r="2.7"/>
				</g>
			</g>
		</g>
		<g>
			<g>
				<polygon fill="#FFFFFF" stroke="#000000" stroke-width="0.4328" points="39.6,27.1 35.6,34.5 37.8,34.5 41.8,27.4 				"/>
				<polygon fill="#FFFFFF" stroke="#000000" stroke-width="0.4328" points="48.5,27.1 52.8,34.5 50.6,34.5 46.3,27.4 				"/>
				<polygon fill="#FFFFFF" stroke="#000000" stroke-width="0.4328" points="40.9,38.3 40.9,27.3 47.1,27.3 47.1,38.7 47.1,38.7 
					47.1,48.3 44.9,48.3 44.9,38.6 43.1,38.6 43.1,48.3 40.9,48.3 40.9,38.3 				"/>
				<g>
					<circle fill="#FFFFFF" stroke="#000000" stroke-width="0.4328" cx="44.1" cy="24.7" r="2.7"/>
				</g>
			</g>
		</g>
	</g>
</g>
</svg>
