<?xml version="1.0" encoding="utf-8"?>
<!-- Generator: Adobe Illustrator 18.1.1, SVG Export Plug-In . SVG Version: 6.00 Build 0)  -->
<svg version="1.1" id="Layer_1" xmlns="http://www.w3.org/2000/svg" xmlns:xlink="http://www.w3.org/1999/xlink" x="0px" y="0px"
	 viewBox="0 0 58 58" enable-background="new 0 0 58 58" xml:space="preserve">
<path fill="#FF931E" d="M43.5,54.8H15.2c-6.6,0-12-5.4-12-12V14.5c0-6.6,5.4-12,12-12h28.2c6.6,0,12,5.4,12,12v28.2
	C55.5,49.3,50.1,54.8,43.5,54.8z"/>
<path fill="#FFFFFF" d="M38.5,20.8c0.2,0.3,1.1,2.3,1.1,2.7c0,0.6-5.6,4.8-5.6,4.8l-0.3-3.1l2.9-1.8L34.3,20v8.8l0.7,3.8l-0.3,0.6
	l-4.5,0.1h-1.5l-3.6-0.1l-0.7-1l0.7-3.4V20l-2.5,3.3l2.9,1.9L24.9,28c0,0-5.3-3.2-5.3-3.8c0-0.4,0.7-2.2,0.9-2.5l2.5-4.8
	c0.7-1.1,1.4-1.6,2.3-1.6h8.9c0.8,0,1.6,0.5,2.3,1.6L38.5,20.8z M32.8,11.1c0,1-0.3,1.9-0.9,2.7s-1.4,1.1-2.3,1.1
	c-0.9,0-1.6-0.4-2.3-1.1c-0.6-0.8-0.9-1.7-0.9-2.7c0-1.1,0.3-2,0.9-2.7c0.6-0.7,1.4-1.1,2.3-1.1c0.9,0,1.6,0.4,2.3,1.1
	S32.8,10,32.8,11.1z"/>
<path fill="#FFFFFF" d="M24.3,31.6c0,0-1.7,3.5-2.2,6.1c-0.5,2.6,4.2,12.4,4.2,12.4c1.6,1.7,3.7,0.3,3.7-1.3c0,0-2.8-7.1-3-9.9
	c-0.2-1.9,2.3-6,2.3-6l-1.6-1.7L24.3,31.6z"/>
<path fill="#FFFFFF" d="M34,32c0,0,1.6,3.5,2,6c0.4,2.5-4.6,12-4.6,12c-1.6,1.6-3.7,0.2-3.6-1.4c0,0,2.9-6.9,3.3-9.6
	c0.2-1.9-2.2-5.9-2.2-5.9l1.7-1.7L34,32z"/>
<rect x="23.7" y="31" fill="#FFFFFF" width="11.6" height="4"/>
<path d="M36.8,30.7l-12,0.1l12.5-16.7l-3.8-0.6L21.9,31.2L21.5,32c0,0,0.4,0.5,1.4,0.4c6.6-0.8,10.3,1.1,15.8,2.7
	C39.8,35.4,36.8,30.7,36.8,30.7z"/>
<g>
	<polygon stroke="#000000" stroke-width="0.2791" points="22.9,33.8 20.7,31.3 21.8,30 23.9,32.5 	"/>
	<polygon stroke="#000000" stroke-width="0.2982" points="21.8,34.5 20.2,32.5 20.6,32 22.2,33.9 	"/>
	<polygon fill="none" stroke="#000000" stroke-width="0.2621" points="20.8,34.8 20.1,34 20.7,33.1 21.3,34 	"/>
</g>
</svg>
