<?xml version="1.0" encoding="utf-8"?>
<!-- Generator: Adobe Illustrator 18.1.1, SVG Export Plug-In . SVG Version: 6.00 Build 0)  -->
<svg version="1.1" id="Layer_2" xmlns="http://www.w3.org/2000/svg" xmlns:xlink="http://www.w3.org/1999/xlink" x="0px" y="0px"
	 viewBox="0 0 58 58" enable-background="new 0 0 58 58" xml:space="preserve">
<path fill="#3FA9F5" d="M28.8,2.8C14.3,2.8,2.6,14.6,2.6,29.1c0,14.5,11.8,26.2,26.2,26.2s26.2-11.8,26.2-26.2
	C55.1,14.6,43.3,2.8,28.8,2.8z"/>
<g id="Home_-_Grey" display="none">
	<path display="inline" fill="none" stroke="#FFFFFF" stroke-width="0.5" d="M43.8,27l-5.4-4.2V16h-3.9v3.9l-5.7-4.3L13.7,27
		l2.3,3.1l0.1,0l1.6-1.2v14.2h22.1V28.9l1.6,1.2L43.8,27z M37.6,40.9h-5v-8.2h-7.8v8.2h-5V27.5l8.9-6.8l8.9,6.8V40.9z"/>
</g>
<g id="Layer_1" display="none">
	<g display="inline">
		<path fill="none" stroke="#FFFFFF" stroke-width="0.5" d="M13.5,24.9l-1.1,3.3l-2.3-1.5v-1.8H13.5z M45,37.1h-0.9v1.3h-1.5v4.9H37
			v-3.2c-1.1,0-1.7-0.6-1.9-1.7H21.6c-0.2,1.1-0.8,1.6-1.9,1.7v3.2h-5.6v-4.9h-1.5v-1.3h-0.9v-1.9h0.9v-4.9c0-1.7,1.4-5.5,4.1-11.2
			c3.1-0.5,7-0.8,11.6-0.8c4.7,0,8.5,0.3,11.7,0.8c2.7,5.7,4.1,9.5,4.1,11.2v4.9H45V37.1z M44.7,36.8v-1.2H12.1v1.2h6.2
			c0.4-0.4,0.8-0.6,1.4-0.6c0.6,0,1,0.2,1.4,0.6h14.6c0.4-0.4,0.8-0.6,1.4-0.6s1,0.2,1.4,0.6H44.7z M18.5,34.5V31h-4.9v3.5H18.5z
			 M42.2,27c-0.2-0.7-0.6-1.9-1.2-3.5c-0.4-0.9-1-2.1-1.9-3.6c-2.5-0.4-6.1-0.5-10.8-0.5c-4.7,0-8.4,0.2-10.8,0.5
			c-0.4,0.7-1,1.9-1.9,3.6c-0.4,0.8-0.8,2-1.2,3.5c4.3-0.2,8.9-0.3,13.9-0.3C33.4,26.7,38,26.8,42.2,27z M21.2,38.2
			c0-1-0.5-1.6-1.6-1.6c-1,0-1.6,0.5-1.6,1.6c0,1,0.5,1.6,1.6,1.6C20.7,39.7,21.2,39.2,21.2,38.2z M37,32.1V31H19.7v1.2H37z
			 M37,34.5v-1.1H19.7v1.1H37z M38.6,38.2c0-1-0.5-1.6-1.6-1.6c-1,0-1.6,0.5-1.6,1.6c0,1,0.5,1.6,1.6,1.6
			C38.1,39.7,38.6,39.2,38.6,38.2z M43.2,34.5V31h-4.9v3.5H43.2z M46.6,26.7l-2.3,1.5l-1.1-3.3h3.4V26.7z"/>
	</g>
</g>
<g>
	<path fill="#FFFFFF" d="M36.3,31.4c0,1.3-0.5,1.9-1.5,1.9s-1.5-0.6-1.5-1.9v-13h-0.7v31.2c0,1.3-0.6,1.9-1.8,1.9S29,51,29,49.7
		V31.2H28v18.5c0,1.3-0.6,1.9-1.8,1.9s-1.8-0.6-1.8-1.9V18.5h-0.7v13c0,1.3-0.5,1.9-1.5,1.9c-1,0-1.5-0.6-1.5-1.9V16.6
		c0-2.4,1.3-3.6,4-3.6h7.5c2.7,0,4,1.2,4,3.6V31.4z M31.7,8.4c0,1.1-0.3,2-0.9,2.9c-0.6,0.9-1.4,1.3-2.3,1.3s-1.6-0.4-2.3-1.3
		c-0.6-0.9-0.9-1.8-0.9-2.9c0-1.1,0.3-2,0.9-2.7c0.6-0.8,1.4-1.1,2.3-1.1c0.9,0,1.6,0.4,2.3,1.1C31.4,6.4,31.7,7.4,31.7,8.4z"/>
</g>
<g display="none">
	<path display="inline" fill="none" stroke="#FFFFFF" stroke-width="0.75" d="M29.4,12.5c4.8,0,8.6,3.9,8.6,8.6
		c0,4.8-3.9,8.6-8.6,8.6c-4.8,0-8.6-3.9-8.6-8.6C20.7,16.4,24.6,12.5,29.4,12.5"/>
	<path display="inline" fill="none" stroke="#FFFFFF" stroke-width="0.75" d="M36.4,29c-1.9,1.7-4.3,2.7-7.1,2.7
		c-2.7,0-5.2-1-7.1-2.7c-5,2.7-8.5,8.1-8.5,14.4H45C44.9,37.1,41.5,31.7,36.4,29z"/>
</g>
</svg>
