<?xml version="1.0" encoding="utf-8"?>
<!-- Generator: Adobe Illustrator 18.1.1, SVG Export Plug-In . SVG Version: 6.00 Build 0)  -->
<svg version="1.1" xmlns="http://www.w3.org/2000/svg" xmlns:xlink="http://www.w3.org/1999/xlink" x="0px" y="0px"
	 viewBox="0 0 58 58" enable-background="new 0 0 58 58" xml:space="preserve">
<g id="Layer_1">
	<path fill="#FF931E" d="M43.4,55.2H15.1c-6.6,0-12-5.4-12-12V15c0-6.6,5.4-12,12-12h28.2c6.6,0,12,5.4,12,12v28.2
		C55.4,49.8,50,55.2,43.4,55.2z"/>
	<path fill="#FFFFFF" d="M47,25.9L33.2,46.2l-22.6-6.3l-0.4-1.1l14-21.8l5.1,0.4L29,17.8l-4.5-0.4L11.5,38.7l20.8,5.3l10.2-24.7
		l-5.6-0.6l-0.9,1.1l0.6-1.5l1,0.1c0.2-0.3,0.2-0.5,0.2-0.7c-0.1-0.2-0.3-0.3-0.8-0.3l0.2-0.5c0.2,0,0.4,0.1,0.6,0.1
		c0.4,0.1,0.7,0.3,0.7,0.6c0.1,0.2,0,0.5-0.2,0.9l4.9,0.5l0.2,0.7l-2.2,5.7L47,25.9z M38.7,20.5l-1,2.3l-12.8-1.6l1.1-2.1l2.4,0.2
		c1-2,1.8-3.3,2.4-4c1.2-1.4,2.4-2.1,3.9-2.1c0.7,0,1.4,0.2,1.8,0.7c0.5,0.4,0.7,1,0.7,1.6c0,0.3-0.1,0.7-0.2,1.1
		c-0.3,0.8-0.8,2-1.5,3.6L38.7,20.5z M37.7,21.8l-12.1-1.3l-0.1,0.2l12,1.4L37.7,21.8z M35.8,16.5c0.1-0.4,0.2-0.7,0.2-1.1
		c0-0.9-0.5-1.4-1.6-1.4c-1.4,0-2.4,0.7-3.2,2.1L35.8,16.5z"/>
	<path fill="#FFFFFF" d="M52.8,29.5c0,6.8-2.4,12.7-7.3,17.5S34.9,54.3,28,54.3S15.3,51.9,10.5,47S3.2,36.3,3.2,29.5
		s2.4-12.7,7.3-17.5S21.2,4.7,28,4.7s12.7,2.4,17.5,7.3S52.8,22.6,52.8,29.5z M40.9,45.8L11.7,16.6c-3,3.8-4.5,8.1-4.5,12.9
		c0,5.8,2,10.7,6.1,14.7s9,6.1,14.7,6.1C32.8,50.3,37.1,48.8,40.9,45.8z M48.9,29.5c0-5.8-2-10.7-6.1-14.7s-9-6.1-14.7-6.1
		c-5.1,0-9.7,1.7-13.6,5L43.8,43C47.2,39.1,48.9,34.6,48.9,29.5z"/>
	<path d="M69,13.3l1.9-3L79,4.2c0.9,0.3,1.4,0.9,1.5,2l-8.1,6.1L69,13.3z M70,12.1l0.3,0.4l1.8-0.5c0.3-0.2,0.4-0.4,0.4-0.5
		c0,0,0-0.1,0-0.1s-0.1,0-0.1,0c-0.1,0-0.3,0.1-0.6,0.2c0.2-0.2,0.4-0.4,0.4-0.6c0-0.1,0-0.1-0.1-0.2S72,10.8,72,10.8
		c-0.1,0-0.3,0.1-0.6,0.2c0.2-0.2,0.4-0.4,0.4-0.6c0,0,0-0.1,0-0.1s-0.1,0-0.1,0c-0.2,0-0.4,0.1-0.6,0.2L70,12.1z M71.6,10.1
		c0.1,0,0.1,0,0.2,0c0.2,0,0.2,0.1,0.2,0.2l0,0.1l4.9-3.7c-0.1-0.1-0.3-0.2-0.4-0.2L71.6,10.1z M72.2,10.6c0.2,0,0.3,0.2,0.3,0.3
		l4.9-3.7c-0.1-0.1-0.1-0.2-0.2-0.3L72.2,10.6z M72.6,11.2c0.1,0,0.1,0,0.2,0.1s0.1,0.1,0.1,0.1c0,0.1,0,0.1-0.1,0.2l4.9-3.7
		c0-0.2-0.1-0.3-0.2-0.4L72.6,11.2z M77.5,5.6c0.6,0.3,1,0.8,1.1,1.5L80.1,6C80,5.3,79.6,4.8,79,4.5L77.5,5.6z"/>
	<path fill="#FFFFFF" d="M85.3,26.8l-1.7-0.7c-0.4,0.2-1,0.4-1.8,0.7c-0.7-0.1-1.5-0.3-2.5-0.6c-0.3,0.4-0.7,0.6-1.1,0.6
		c-0.3,0-0.6-0.1-0.9-0.3c-0.3,0.2-0.6,0.3-0.8,0.3c-0.3,0-0.5-0.1-0.8-0.3c-0.2-0.2-0.4-0.4-0.6-0.8c-0.6-0.1-1-0.3-1.3-0.7
		L72.6,26l-2.4,0.9L72,25l1.8-1.1c0.2-0.3,0.5-0.6,1-0.7c-0.3,0-0.7-0.1-1-0.3l1.2-3.4l2.1-2.3l4.9,0.7l0.6,0.7l5.8-3.7
		c0.4,0.1,0.6,0.4,0.6,0.7c0,0.1,0,0.1,0,0.2l-5.7,3.6l0.5,0.7c0.7,1,1.2,1.6,1.4,1.8c0.2,0.2,0.6,0.4,1.2,0.6c0,0.3,0,0.6,0,0.8
		C86.3,24.7,86,25.9,85.3,26.8z M85.1,26.1c0.4-1,0.6-1.9,0.6-2.9v-0.4c-0.7-0.3-1.5-1-2.1-2c-0.2-0.3-0.3-0.4-0.3-0.5l-0.6-0.8
		l-2.4,1.5l0,0.9l0,0.9c-1.1,0.2-2.2,0.4-3.3,0.8c-0.4-0.1-0.7-0.1-1-0.1c-1,0-1.6,0.3-1.6,0.8c0,0.5,0.5,0.8,1.4,0.8
		c0.3,0,0.8-0.1,1.3-0.2c2.3,0.6,3.9,0.9,4.8,1.1c0.2-0.1,0.4-0.1,0.5-0.2c0.6-0.2,1-0.3,1.3-0.4L85.1,26.1z M82,18.8l-0.4-0.4
		l-4.4-0.6l-1.8,2l-0.9,2.8c0.1,0,0.2,0,0.3,0c0.6,0,1.2-0.6,1.6-1.9l0.4-0.3c0.5-0.3,0.9-0.7,1.3-1.1c0.5,0.3,1,0.6,1.6,0.9
		L82,18.8z M77.3,25.7l-0.3-0.1c-0.5,0.1-0.9,0.2-1.2,0.2c0.1,0.1,0.2,0.3,0.4,0.3s0.2,0.1,0.4,0.1C76.9,26.3,77.2,26.1,77.3,25.7z
		 M79.1,20.6c-0.1-0.1-0.2-0.1-0.3-0.1c-0.3-0.1-0.5-0.3-0.7-0.4c-0.3,0.4-0.8,0.7-1.3,1c-0.1,0.5-0.3,0.9-0.6,1.3L79.1,20.6z
		 M79.7,21.5l-2.8,1.8c1.2-0.4,2.2-0.6,2.8-0.7v-0.7L79.7,21.5z M78.8,26.1l-1-0.3c0.1,0.3,0.2,0.4,0.5,0.4
		C78.5,26.3,78.6,26.2,78.8,26.1z"/>
	<g>
		<path fill="#FFFFFF" d="M8.4,41.6c-0.1-0.2-0.3-0.5-0.5-0.8c0.5-0.6,0.7-1.1,0.8-1.5c0.1-0.4,0.2-1.4,0.2-3l0-1.1l-8.6,0.3
			c-0.1-0.1-0.1-0.1-0.2-0.2c-0.3-0.4-0.2-0.8,0.1-1.2l8.8-0.3l0.1-1.1l4.7-4.2l3.9,1l3.7,2.8c-0.3,0.4-0.6,0.8-0.9,1
			c0.6-0.2,1.1-0.2,1.5,0l2.7-0.1l3.2,0.6l-3.2,0.8l-2.1,0.1c0,0.6-0.3,1.1-0.9,1.6c0.1,0.5,0,0.9-0.1,1.3c-0.1,0.3-0.3,0.6-0.6,0.8
			c-0.3,0.2-0.7,0.3-1.1,0.3c-0.1,0.4-0.4,0.7-0.7,1C19,40,18.5,40,17.9,39.9c-0.8,0.9-1.5,1.7-2.2,2.4c-0.9,0.3-1.7,0.5-2.4,0.6
			L12,44.7C10.6,44.1,9.4,43.1,8.4,41.6z M12.9,42.2c0.3-0.1,0.9-0.2,1.6-0.5c0.1,0,0.4-0.1,0.6-0.2c0.9-0.8,2.3-2.3,4.3-4.5
			c0.7-0.2,1.2-0.5,1.5-0.7c1-0.7,1.3-1.3,0.9-1.9c-0.4-0.5-1.1-0.5-2.2,0.3c-0.3,0.2-0.6,0.5-1,0.9c-1.4,0.3-2.8,0.8-4.1,1.5L14,36
			l-0.7-0.9l-3.7,0.1l-0.1,1.2c0,0.1,0,0.4,0,0.8c0,1.5-0.3,2.7-0.9,3.6L9,41.2c0.7,1,1.6,1.9,2.7,2.6L12.9,42.2z M13.3,33.7
			c0.4-0.7,0.8-1.4,1-2.1c0.8,0.1,1.5,0.2,2.2,0.2l0.6,0c1.3,1.1,2.4,1.3,3,0.9c0.1-0.1,0.2-0.1,0.3-0.3l-3-2.4l-3.4-0.8l-4.3,3.8
			l-0.1,0.7L13.3,33.7z M14.4,35.4l0.5,0.8c0.8-0.3,1.9-0.7,3.5-1.2l-4.2,0.1L14.4,35.4z M18.5,33.5c-0.6-0.2-1.1-0.5-1.6-0.9
			c-0.8,0-1.5,0-2.2-0.1c-0.1,0.3-0.3,0.6-0.4,0.9c0,0.1-0.1,0.2-0.2,0.4L18.5,33.5z M19.1,39.1c0.3-0.2,0.4-0.5,0.3-0.9l-0.9,1
			C18.7,39.3,18.9,39.2,19.1,39.1z M20.9,37.9c0.1-0.1,0.2-0.2,0.3-0.4c0.1-0.2,0.1-0.4,0.2-0.6c-0.3,0.2-0.7,0.4-1.4,0.7l-0.2,0.3
			C20.1,38.1,20.5,38.1,20.9,37.9z"/>
	</g>
</g>
<g id="Layer_2">
	<g>
		<g>
			<g>
				<path fill="#FF931E" d="M15.1,31.1c0.4,0.1,0.7,0.2,1.1,0.1c0.3,0,0.2-0.5-0.1-0.5c-0.2,0-0.3-0.1-0.4-0.3
					c-0.1,0.1-0.2,0.2-0.3,0.4c0.3,0.1,0.6,0.1,1,0.1c0.2,0,0.2-0.4,0.1-0.5c-0.3-0.2-0.7-0.3-1.1-0.4c0,0.2,0,0.3-0.1,0.5
					c0.4,0,0.7,0,1.1,0.2c0.2,0.1,0.4-0.3,0.2-0.4c-0.3-0.3-0.7-0.5-1.1-0.7c-0.3-0.1-0.4,0.3-0.2,0.5c0.3,0.2,0.7,0.3,1,0.5
					c0-0.2,0-0.3,0.1-0.5c-0.4,0.2-0.9,0.3-1.3,0.5c-0.2,0.1-0.4,0.2-0.5,0.5c-0.1,0.7,1.2,0.6,1.6,0.7c0.3,0,0.5-0.4,0.1-0.5
					c-0.5-0.1-1.1-0.2-1.6-0.3c-0.2,0-0.4,0.2-0.3,0.4c0.2,0.4,0.5,0.7,1,0.7c0.5-0.1,0.9-0.5,1.2-0.9c0.2-0.2,0.7-0.6,0.3-1
					c-0.3-0.3-1-0.3-1.5-0.3c-0.3,0-0.3,0.5,0,0.5c0.2,0,0.6-0.1,0.8,0c0.2,0,0.2,0.1,0.1,0.2c-0.1,0.1-0.1,0.1-0.2,0.2
					c-0.4,0.4-0.9,0.9-1.3,0.2c-0.1,0.1-0.2,0.2-0.3,0.4c0.5,0.1,1.1,0.2,1.6,0.3c0-0.2,0.1-0.3,0.1-0.5c-0.2,0-0.5-0.1-0.7-0.1
					c-0.1,0-0.2,0-0.4-0.1c-0.1,0-0.1,0-0.1,0c0.1-0.1,0.5-0.2,0.6-0.2c0.2-0.1,0.5-0.2,0.7-0.3c0.2-0.1,0.3-0.4,0.1-0.5
					c-0.3-0.2-0.7-0.3-1-0.5c-0.1,0.2-0.1,0.3-0.2,0.5c0.3,0.1,0.6,0.3,0.9,0.6c0.1-0.1,0.2-0.3,0.2-0.4c-0.4-0.2-0.8-0.2-1.2-0.2
					c-0.3,0-0.4,0.4-0.1,0.5c0.3,0.1,0.6,0.1,0.9,0.3c0-0.2,0-0.3,0.1-0.5c-0.3,0-0.5,0-0.7-0.1c-0.2-0.1-0.4,0.2-0.3,0.4
					c0.2,0.3,0.5,0.5,0.8,0.5c0-0.2,0-0.3-0.1-0.5c-0.3,0-0.6,0-0.9-0.1C14.9,30.5,14.8,31,15.1,31.1L15.1,31.1z"/>
			</g>
		</g>
		<g>
			<g>
				<path fill="#FF931E" d="M10.4,37c0,0.8,0,1.6,0,2.4c0,0.3,0.4,0.3,0.5,0.1c0.1-0.4,0-1.3-0.7-1c-0.7,0.4,0.4,1.5,0.7,1.7
					c0.1,0.1,0.4,0.1,0.4-0.1c0.1-0.6,0.1-1.1,0-1.6c0-0.2-0.3-0.2-0.4-0.1c-0.2,0.3-0.3,0.5-0.3,0.9c0,0.3,0.5,0.3,0.5,0
					c0.1-1.2,0-2,1-2.9c0.1-0.1,0.7-0.9,0.8-0.2c0,0.2,0.4,0.2,0.5,0.1c0.4-0.9-0.7-1.6-1.3-0.7c-0.5,0.7,0.3,1.9,0.8,1
					c0.1-0.3-0.2-0.5-0.4-0.3c-0.5,0.4-0.7,0.7-1,1.2c0.2,0.1,0.3,0.1,0.5,0.2c0-0.2,0.1-0.4,0.1-0.5c0.1-0.3-0.2-0.4-0.4-0.2
					c-0.3,0.3-0.5,0.5-0.8,0.9c0.2,0.1,0.3,0.1,0.5,0.2c0-0.2,0-0.3,0.1-0.5c0-0.3-0.3-0.4-0.5-0.2c-0.1,0.2-0.1,0.2-0.1,0.4
					c0,0.2,0.3,0.3,0.4,0.2c0.6-0.6,1.4-1.2,1.5-2.1c0-0.3-0.4-0.3-0.5-0.1c-0.3,1.1-0.5,2.3-0.7,3.5c0.2,0,0.3,0,0.5,0.1
					c0-0.6,0-1.6-0.7-1.9c-0.1,0-0.2-0.1-0.3,0c-0.9,0.7,0.2,2.3,0.1,3.2c0.2,0,0.3,0,0.5,0c-0.1-0.8-0.1-1.7-0.1-2.5
					c0-0.3-0.5-0.3-0.5,0c-0.1,0.9,0,1.7,0.2,2.5c0.1,0.2,0.4,0.2,0.5,0.1c0.3-0.6,0.5-1.1,0.7-1.7c0.1-0.3-0.4-0.4-0.5-0.1
					c-0.1,0.4-0.2,0.7-0.3,1.1c0,0.2,0.2,0.5,0.4,0.2c0.2-0.3,0.5-0.6,0.6-0.9c-0.2-0.1-0.3-0.1-0.5-0.2c-0.1,0.4-0.2,0.7-0.5,1
					c0.1,0.1,0.3,0.2,0.4,0.3c0.2-0.3,0.4-0.6,0.5-0.8c-0.1-0.1-0.3-0.2-0.4-0.3c-0.2,0.4-0.3,0.7-0.3,1.1c0,0.2,0.2,0.4,0.4,0.2
					c0.2-0.2,0.5-0.5,0.7-0.7c-0.1-0.1-0.3-0.2-0.4-0.2c-0.1,0.2-0.1,0.4-0.2,0.5c-0.1,0.3,0.3,0.5,0.4,0.3c0.2-0.3,0.4-0.7,0.7-1
					c-0.1-0.1-0.3-0.2-0.4-0.3c-0.1,0.2-0.2,0.4-0.4,0.6c-0.2,0.3,0.3,0.5,0.4,0.3c0.1-0.1,0.2-0.3,0.3-0.4c0.2-0.3-0.3-0.5-0.4-0.3
					c-0.2,0.3-0.3,0.5-0.5,0.8c-0.1,0.2,0.2,0.5,0.4,0.3c0.2-0.2,0.4-0.5,0.6-0.7c-0.1-0.1-0.3-0.2-0.4-0.3c0,0.1-0.1,0.1-0.1,0.2
					c-0.1,0.2,0.2,0.5,0.4,0.3c0.1-0.1,0.2-0.2,0.2-0.3c-0.1-0.1-0.3-0.2-0.4-0.3c-0.5,0.6-0.9,1.3-1.4,1.9c0.1,0.1,0.3,0.2,0.4,0.3
					c0.3-0.4,0.5-0.8,0.8-1.2c-0.2-0.1-0.3-0.1-0.5-0.2c-0.1,0.2-0.2,0.4-0.3,0.6c-0.2,0.2,0.2,0.5,0.4,0.3c0.4-0.4,0.7-0.8,1.1-1.2
					c-0.1-0.1-0.3-0.2-0.4-0.3c-0.1,0.3-0.3,0.7-0.4,1c-0.1,0.3,0.2,0.5,0.4,0.3c0.3-0.4,0.5-0.8,0.8-1.1c-0.2-0.1-0.3-0.1-0.5-0.2
					c-0.1,0.2-0.1,0.4-0.2,0.5c-0.1,0.3,0.2,0.4,0.4,0.2c0.2-0.2,0.4-0.4,0.7-0.6c-0.1-0.1-0.3-0.2-0.4-0.2
					c-0.2,0.6-0.5,1.1-0.8,1.6c-0.2,0.3,0.2,0.5,0.4,0.3c0.2-0.3,0.4-0.5,0.6-0.8c-0.1-0.1-0.3-0.2-0.4-0.3
					c-0.1,0.1-0.1,0.3-0.2,0.4c0.2,0,0.3,0.1,0.5,0.1c0-0.1,0-0.2,0-0.3c0-0.2-0.2-0.3-0.4-0.2c-0.4,0.3-0.9,0.7-1.3,1
					c0.1,0.1,0.2,0.2,0.4,0.3c0.2-0.6,1.2-2.3,0.4-2.8c-0.6-0.4-1,0.4-1.2,0.8c-0.1,0.2,0.2,0.4,0.4,0.3c0-0.1,0-0.1,0-0.2
					c0.2,0,0.3,0,0.5,0.1c-0.1-0.9-0.2-2.3-0.9-2.9c-0.1-0.1-0.2-0.1-0.2-0.1c-0.8,0.3-0.8,1.4-0.4,2c0.7,1.2,2.6,1.5,3.8,1.1
					c-0.1-0.1-0.2-0.2-0.3-0.3c-0.1,0.6-0.4,1-1,1.4c0.1,0.1,0.2,0.2,0.4,0.3c0.2-0.6,0.5-1,0.9-1.4c-0.1-0.1-0.2-0.2-0.4-0.4
					c-0.3,0.4-0.6,0.8-0.8,1.3c-0.1,0.2,0.1,0.5,0.3,0.4c0.6-0.3,1.1-0.6,1.5-1.1c0.2-0.2-0.2-0.5-0.4-0.3c-0.5,0.5-1,0.9-1.4,1.4
					c0.1,0.1,0.2,0.2,0.4,0.4c0.1-0.1,1-1,1-1.1c-0.1-0.2-0.9,0.8-0.9,0.8c-0.2,0.2,0.1,0.6,0.4,0.4c0.5-0.5,0.9-0.9,1.5-1.3
					c-0.1-0.1-0.2-0.3-0.3-0.4c-0.5,0.5-0.9,1-1.3,1.5c-0.2,0.2,0.2,0.5,0.4,0.3c0.2-0.2,1-1.6,1.4-1.5c0-0.1-0.1-0.3-0.1-0.4
					c-0.6,0.6-1.2,1.1-1.8,1.7c0.1,0.1,0.3,0.2,0.4,0.3c0.3-0.6,0.7-1.1,1.2-1.6c0.2-0.2-0.1-0.6-0.4-0.4c-0.5,0.5-0.9,1.1-1.2,1.7
					c-0.1,0.2,0.2,0.5,0.4,0.3c0.6-0.6,1.2-1.2,1.8-1.7c0.1-0.1,0.1-0.4-0.1-0.4c-0.9-0.2-1.5,1.1-1.9,1.6c0.1,0.1,0.3,0.2,0.4,0.3
					c0.4-0.5,0.8-1,1.2-1.4c0.2-0.2-0.1-0.6-0.3-0.4C15.5,40,15,40.4,14.6,41c0.1,0.1,0.2,0.2,0.4,0.4c0.3-0.4,1.4-1.3,0.8-1.9
					c-0.1-0.1-0.3-0.1-0.4,0c-0.4,0.5-0.8,1-1.3,1.4c-0.2,0.2,0.1,0.6,0.4,0.4c0.5-0.5,1-0.9,1.4-1.4c-0.1-0.1-0.3-0.2-0.4-0.3
					c-0.3,0.4-0.7,0.7-1.2,0.9c0.1,0.1,0.2,0.2,0.3,0.4c0.2-0.4,0.4-0.8,0.7-1.1c0.2-0.2-0.1-0.6-0.4-0.4c-0.5,0.5-0.8,1-1,1.6
					c-0.1,0.2,0.2,0.4,0.4,0.3c0.6-0.4,1-0.9,1.2-1.7c0.1-0.2-0.1-0.4-0.3-0.3c-0.8,0.2-2.3,0.1-2.8-0.5c-0.3-0.1-0.4-0.4-0.3-0.7
					c-0.1-0.7,0-0.7,0.2-0.2c0.2,0.5,0.3,1.1,0.3,1.7c0,0.3,0.4,0.3,0.5,0.1c0,0,0-0.1,0-0.1c0-0.1,0-0.2-0.1-0.2
					c-0.2-0.2-0.4-0.2-0.7,0c0.1,0.1,0.2,0.2,0.4,0.3c0.1,0,0.3,0.1,0.4,0.1c-0.1,0.2-0.1,0.4-0.2,0.6c-0.1,0.3-0.2,0.7-0.4,1
					c-0.1,0.2,0.2,0.4,0.4,0.3c0.4-0.3,0.9-0.7,1.3-1c-0.1-0.1-0.3-0.1-0.4-0.2c0,0.1,0,0.2,0,0.3c0,0.2,0.4,0.4,0.5,0.1
					c0.1-0.1,0.1-0.3,0.2-0.4c0.1-0.3-0.2-0.5-0.4-0.3c-0.2,0.3-0.4,0.5-0.6,0.8c0.1,0.1,0.3,0.2,0.4,0.3c0.3-0.6,0.6-1.1,0.8-1.8
					c0.1-0.3-0.2-0.4-0.4-0.2c-0.2,0.2-0.4,0.4-0.7,0.6c0.1,0.1,0.3,0.2,0.4,0.2c0.1-0.2,0.1-0.4,0.2-0.5c0.1-0.3-0.3-0.4-0.5-0.2
					c-0.3,0.4-0.5,0.8-0.8,1.1c0.1,0.1,0.3,0.2,0.4,0.3c0.1-0.3,0.3-0.7,0.4-1c0.1-0.2-0.2-0.5-0.4-0.3c-0.4,0.4-0.7,0.8-1.1,1.2
					c0.1,0.1,0.3,0.2,0.4,0.3c0.3-0.4,0.2-0.2,0.3-0.7c0.1-0.3-0.3-0.4-0.5-0.2c-0.3,0.4-0.5,0.8-0.8,1.2c-0.2,0.3,0.2,0.5,0.4,0.3
					c0.5-0.6,0.9-1.3,1.4-1.9c0.2-0.2-0.2-0.5-0.4-0.3c-0.1,0.1-0.2,0.2-0.2,0.3c0.1,0.1,0.3,0.2,0.4,0.3c0-0.1,0.1-0.1,0.1-0.2
					c0.1-0.2-0.2-0.5-0.4-0.3c-0.2,0.2-0.4,0.5-0.6,0.7c0.1,0.1,0.3,0.2,0.4,0.3c0.2-0.3,0.3-0.5,0.5-0.8c-0.1-0.1-0.3-0.2-0.4-0.3
					c-0.1,0.1-0.2,0.3-0.3,0.4c0.1,0.1,0.3,0.2,0.4,0.3c0.1-0.2,0.2-0.4,0.4-0.6c0.1-0.2-0.2-0.5-0.4-0.3c-0.3,0.3-0.5,0.7-0.7,1.1
					c0.1,0.1,0.3,0.2,0.4,0.3c0.2-0.3,0.2-0.3,0.3-0.7c0.1-0.2-0.2-0.4-0.4-0.2c-0.2,0.2-0.5,0.5-0.7,0.7c0.1,0.1,0.3,0.2,0.4,0.2
					c0-0.3,0.1-0.7,0.3-1c0.1-0.3-0.3-0.5-0.4-0.3c-0.2,0.3-0.4,0.6-0.5,0.8c-0.2,0.3,0.3,0.5,0.4,0.3c0.2-0.4,0.4-0.7,0.5-1.1
					c0.1-0.3-0.3-0.4-0.5-0.2c-0.2,0.3-0.3,0.6-0.6,0.8c0.1,0.1,0.3,0.2,0.4,0.2c0.1-0.4,0.2-0.7,0.3-1.1c-0.2,0-0.3-0.1-0.5-0.1
					c-0.1,0.6-0.3,1.1-0.6,1.6c0.2,0,0.3,0,0.5,0.1c-0.2-0.8-0.3-1.6-0.2-2.4c-0.2,0-0.3,0-0.5,0c0,0.9,0,1.7,0.1,2.5
					c0,0.3,0.5,0.3,0.5,0c0-0.4,0-0.8-0.1-1.2c-0.1-0.2-0.2-0.5-0.2-0.7c0.1-0.6,0.2-0.4,0.2,0.6c0,0.3,0.4,0.4,0.5,0.1
					c0.2-1.2,0.4-2.3,0.7-3.5c-0.2,0-0.3,0-0.5-0.1c-0.1,0.7-0.9,1.3-1.4,1.7c0.1,0.1,0.3,0.1,0.4,0.2c0-0.1,0-0.1,0.1-0.2
					c-0.2-0.1-0.3-0.1-0.5-0.2c0,0.2,0,0.3-0.1,0.5c0,0.3,0.3,0.4,0.5,0.2c0.2-0.3,0.4-0.6,0.7-0.8c-0.1-0.1-0.3-0.2-0.4-0.2
					c0,0.2-0.1,0.4-0.1,0.5c-0.1,0.3,0.3,0.5,0.5,0.2c0.2-0.5,0.5-0.8,0.9-1.1c-0.1-0.1-0.3-0.2-0.4-0.3c0.2-0.1,0.3-0.2,0.5-0.3
					c0.2,0,0.3,0,0.5,0.1c-0.1-0.7-0.6-1.1-1.2-0.6c-0.5,0.5-1.1,1.1-1.4,1.8c-0.3,0.7-0.1,1.4-0.2,2.1c0.2,0,0.3,0,0.5,0
					c0.1-0.2,0.1-0.4,0.2-0.6c-0.1,0-0.3-0.1-0.4-0.1c0.1,0.5,0.1,0.9,0,1.4c0.1,0,0.3-0.1,0.4-0.1c-0.2-0.3-0.5-0.5-0.8-0.6
					c0.2,0,0.3,0,0.5,0.1c0-0.8,0-1.6,0-2.4C10.9,36.7,10.4,36.7,10.4,37L10.4,37z"/>
			</g>
		</g>
		<path fill="none" stroke="#FFFFFF" stroke-miterlimit="10" d="M27.6,23.5c-0.1,0.1-0.1,0.4,0,0.5c0.5-0.2,1-0.4,1.6-0.5
			c0,0.4,0,0.9,0.1,1.3c0.7-0.4,1.5-0.7,2.2-1.1c0,0.5,0,0.9,0.1,1.4c0.7-0.2,1.3-0.5,1.9-0.8c0.2,0.6,0.3,1.2,0.2,1.8
			c0.8-0.5,1.6-1,2.4-1.6c0,0.4,0,0.8,0,1.3c0.5-0.2,1-0.4,1.5-0.6c0,0.4,0,0.7,0,1.1"/>
		<path fill="none" stroke="#FFFFFF" stroke-miterlimit="10" d="M29.9,28.1c-0.1,0.2,0,0.4,0.1,0.5c0.4-0.4,0.9-0.7,1.4-1
			c0.1,0.5,0.2,1,0.2,1.6c0,0.1,0,0.1,0.1,0.2c0.1,0.1,0.2,0,0.3,0c0.5-0.2,1-0.4,1.4-0.7c0.2,0.3,0.3,0.7,0.3,1.1
			c0.5-0.3,1-0.7,1.4-1c0.2,0.6,0.3,1.1,0.3,1.7c0.6-0.3,1.2-0.7,1.8-1c0,0.1,0,0.2,0,0.2"/>
		<path fill="none" stroke="#FFFFFF" stroke-miterlimit="10" d="M27.4,34.8c0.1,0.3,0.3,0.6,0.6,0.6c0.3,0.1,0.6-0.1,0.8-0.3
			c0.1,0.2,0.1,0.4,0.2,0.6c0.3-0.1,0.7-0.2,1-0.5c0.1,0.3,0.2,0.6,0.3,0.9"/>
		<path fill="none" stroke="#FFFFFF" stroke-miterlimit="10" d="M21.7,30.5c0,0.5,0.2,1,0.5,1.3c0.3-0.1,0.5-0.3,0.7-0.5
			c0,0.3,0.1,0.7,0.5,0.8c0.2,0.1,0.4,0,0.5-0.1c0.2-0.1,0.4-0.2,0.5-0.1s0.4,0.2,0.3,0.4c0.1,0,0.2,0,0.2,0c0,0.2,0.1,0.5,0.3,0.6
			c0.2,0.1,0.5,0,0.6-0.2"/>
	</g>
	<g>
		<g>
			<g>
				<path fill="#FF931E" d="M15.1,31.1c0.4,0.1,0.7,0.2,1.1,0.1c0.3,0,0.2-0.5-0.1-0.5c-0.2,0-0.3-0.1-0.4-0.3
					c-0.1,0.1-0.2,0.2-0.3,0.4c0.3,0.1,0.6,0.1,1,0.1c0.2,0,0.2-0.4,0.1-0.5c-0.3-0.2-0.7-0.3-1.1-0.4c0,0.2,0,0.3-0.1,0.5
					c0.4,0,0.7,0,1.1,0.2c0.2,0.1,0.4-0.3,0.2-0.4c-0.3-0.3-0.7-0.5-1.1-0.7c-0.3-0.1-0.4,0.3-0.2,0.5c0.3,0.2,0.7,0.3,1,0.5
					c0-0.2,0-0.3,0.1-0.5c-0.4,0.2-0.9,0.3-1.3,0.5c-0.2,0.1-0.4,0.2-0.5,0.5c-0.1,0.7,1.2,0.6,1.6,0.7c0.3,0,0.5-0.4,0.1-0.5
					c-0.5-0.1-1.1-0.2-1.6-0.3c-0.2,0-0.4,0.2-0.3,0.4c0.2,0.4,0.5,0.7,1,0.7c0.5-0.1,0.9-0.5,1.2-0.9c0.2-0.2,0.7-0.6,0.3-1
					c-0.3-0.3-1-0.3-1.5-0.3c-0.3,0-0.3,0.5,0,0.5c0.2,0,0.6-0.1,0.8,0c0.2,0,0.2,0.1,0.1,0.2c-0.1,0.1-0.1,0.1-0.2,0.2
					c-0.4,0.4-0.9,0.9-1.3,0.2c-0.1,0.1-0.2,0.2-0.3,0.4c0.5,0.1,1.1,0.2,1.6,0.3c0-0.2,0.1-0.3,0.1-0.5c-0.2,0-0.5-0.1-0.7-0.1
					c-0.1,0-0.2,0-0.4-0.1c-0.1,0-0.1,0-0.1,0c0.1-0.1,0.5-0.2,0.6-0.2c0.2-0.1,0.5-0.2,0.7-0.3c0.2-0.1,0.3-0.4,0.1-0.5
					c-0.3-0.2-0.7-0.3-1-0.5c-0.1,0.2-0.1,0.3-0.2,0.5c0.3,0.1,0.6,0.3,0.9,0.6c0.1-0.1,0.2-0.3,0.2-0.4c-0.4-0.2-0.8-0.2-1.2-0.2
					c-0.3,0-0.4,0.4-0.1,0.5c0.3,0.1,0.6,0.1,0.9,0.3c0-0.2,0-0.3,0.1-0.5c-0.3,0-0.5,0-0.7-0.1c-0.2-0.1-0.4,0.2-0.3,0.4
					c0.2,0.3,0.5,0.5,0.8,0.5c0-0.2,0-0.3-0.1-0.5c-0.3,0-0.6,0-0.9-0.1C14.9,30.5,14.8,31,15.1,31.1L15.1,31.1z"/>
			</g>
			<g>
				<g>
					<path fill="#FF931E" d="M15,31.4c0.4,0.1,1.3,0.4,1.6-0.1c0.1-0.1,0.1-0.4,0-0.5c-0.1-0.3-0.5-0.2-0.6-0.4
						c-0.1-0.2-0.3-0.2-0.4,0c-0.1,0.1-0.2,0.2-0.3,0.4c-0.1,0.1,0,0.3,0.1,0.4c0.4,0.1,1.4,0.3,1.5-0.3c0.1-0.6-0.9-0.8-1.4-0.9
						c-0.1,0-0.3,0-0.3,0.2c0,0.2,0,0.3-0.1,0.5c0,0.2,0.1,0.3,0.2,0.3c0.2,0,0.5,0,0.7,0.1c0.1,0,0.3,0.1,0.4,0.1
						c0.2,0,0.4-0.1,0.4-0.3c0.2-0.5-0.4-0.9-0.8-1.1c-0.3-0.2-0.9-0.5-1.1,0.1c-0.2,0.6,0.8,0.9,1.2,1.1c0.2,0.1,0.4,0,0.4-0.2
						c0-0.2,0-0.3,0.1-0.5c0-0.2-0.2-0.3-0.3-0.2c-0.6,0.2-1.7,0.4-1.9,1c-0.2,0.5,0.3,0.9,0.7,1c0.4,0.1,1.1,0.3,1.4,0
						c0.2-0.1,0.3-0.3,0.2-0.5c-0.1-0.3-0.4-0.4-0.7-0.4c-0.4-0.1-1.8-0.6-1.9,0.2c-0.1,0.5,0.6,1.1,1.1,1.1c0.7,0,1.2-0.6,1.7-1.1
						c0.4-0.5,0.5-1.1-0.2-1.4c-0.4-0.2-1.5-0.4-1.7,0.2c-0.1,0.2,0,0.5,0.2,0.6c0.3,0.1,0.7-0.1,1.1,0.1c0-0.1-0.1-0.1-0.1-0.2
						c0,0.1-0.3,0.4-0.4,0.4c-0.2,0.2-0.5,0.4-0.7,0c-0.1-0.2-0.3-0.2-0.4,0c-0.1,0.1-0.2,0.2-0.3,0.4c-0.1,0.1,0,0.3,0.1,0.4
						c0.5,0.1,1.1,0.2,1.6,0.3c0.1,0,0.3,0,0.3-0.2c0-0.2,0.1-0.3,0.1-0.5c0-0.1,0-0.3-0.2-0.3c-0.4-0.1-0.8-0.1-1.2-0.2
						c0,0.2,0,0.3,0,0.5c0.2,0,0.5-0.2,0.7-0.2c0.3-0.1,0.8-0.2,1-0.5c0.5-0.7-0.7-1-1.1-1.2c-0.2-0.1-0.3,0-0.4,0.1
						c-0.1,0.2-0.1,0.3-0.2,0.5c0,0.1,0,0.2,0.1,0.3c0.3,0.1,0.6,0.3,0.8,0.5c0.1,0.1,0.3,0.1,0.4-0.1c0.1-0.1,0.2-0.3,0.2-0.4
						c0.1-0.1,0-0.3-0.1-0.4c-0.4-0.2-1.5-0.5-1.7,0.1c-0.3,0.7,0.8,0.7,1.2,0.9c0.2,0.1,0.4,0,0.4-0.2c0-0.2,0-0.3,0.1-0.5
						c0-0.1-0.1-0.3-0.2-0.2c-0.4,0-1.3-0.3-1.3,0.5c0,0.5,0.7,0.8,1.1,0.8c0.2,0,0.3-0.2,0.2-0.3c0-0.2,0-0.3-0.1-0.5
						c0-0.1-0.1-0.2-0.2-0.2c-0.4,0-1-0.3-1.3,0.1C14.6,30.8,14.7,31.2,15,31.4c0.2,0.1,0.5-0.3,0.2-0.5C15,30.8,15.5,31,15.5,31
						c0.2,0,0.4,0,0.6,0c-0.1-0.1-0.2-0.1-0.2-0.2c0,0.2,0,0.3,0.1,0.5c0.1-0.1,0.2-0.2,0.2-0.3c-0.1,0-0.7-0.2-0.5-0.3
						c0.1,0,0.5,0,0.6,0c-0.1-0.1-0.2-0.2-0.2-0.2c0,0.2,0,0.3-0.1,0.5c0.1-0.1,0.3-0.1,0.4-0.2c-0.3-0.2-0.6-0.2-0.9-0.3
						c-0.2-0.1,0.3,0,0.4,0c0.2,0,0.4,0.1,0.6,0.2c0-0.1-0.1-0.2-0.1-0.4c-0.1,0.1-0.2,0.3-0.2,0.4c0.1,0,0.3,0,0.4-0.1
						c-0.3-0.2-0.6-0.4-0.9-0.6c0,0.1,0.1,0.2,0.1,0.3c0.1-0.2,0.1-0.3,0.2-0.5c-0.1,0-0.2,0.1-0.4,0.1c0.2,0.1,0.6,0.2,0.7,0.4
						c0.2,0.2-0.3,0.3-0.5,0.4c-0.2,0.1-0.6,0.2-0.7,0.2C14.8,30.9,14.8,31.3,15,31.4c0.5,0.1,0.9,0.1,1.3,0.2
						c-0.1-0.1-0.1-0.2-0.2-0.3c0,0.2-0.1,0.3-0.1,0.5c0.1-0.1,0.2-0.1,0.3-0.2c-0.5-0.1-1.1-0.2-1.6-0.3c0,0.1,0.1,0.2,0.1,0.4
						c0.1-0.1,0.2-0.2,0.3-0.4c-0.1,0-0.3,0-0.4,0c0.2,0.4,0.6,0.6,1,0.4c0.3-0.1,0.9-0.6,1-1c0.1-0.4-0.5-0.5-0.8-0.5
						c-0.1,0-0.3,0.1-0.4,0c0.1,0,0.3,0,0.4,0c0.3,0,0.9,0,0.9,0.4c0,0.3-0.4,0.6-0.6,0.8c-0.2,0.2-0.6,0.6-0.9,0.5
						c-0.1,0-0.4-0.2-0.4-0.3c-0.1-0.1-0.1-0.1,0-0.2c0.1,0,0.2,0,0.3,0.1c0.2,0,0.4,0.1,0.6,0.1c0.1,0,0.4,0.1,0.5,0.1
						c-0.1,0-0.3,0-0.4,0c-0.2,0-0.5,0-0.7-0.1c-0.4-0.1-0.2-0.4,0.1-0.5c0.4-0.2,0.8-0.3,1.3-0.5c-0.1-0.1-0.2-0.2-0.3-0.2
						c0,0.2,0,0.3-0.1,0.5c0.1-0.1,0.3-0.1,0.4-0.2c-0.3-0.1-0.6-0.3-0.8-0.4c-0.2-0.1,0.1,0,0.1,0.1c0.1,0.1,0.2,0.1,0.3,0.2
						c0,0,0.3,0.3,0.3,0.3c0,0-0.3-0.1-0.4-0.1c-0.2-0.1-0.5-0.1-0.8-0.1c0.1,0.1,0.2,0.2,0.2,0.3c0-0.2,0-0.3,0.1-0.5
						c-0.1,0.1-0.2,0.1-0.3,0.2c0.2,0,0.8,0.1,0.9,0.3c0.1,0.2-0.6,0-0.7,0c0,0.1,0.1,0.2,0.1,0.4c0.1-0.1,0.2-0.2,0.3-0.4
						c-0.1,0-0.3,0-0.4,0c0.1,0.1,0.1,0.2,0.2,0.2c0.1,0.1,0.2,0.1,0.3,0.1c0.1,0,0.1,0,0,0c-0.1,0-0.2,0-0.2,0
						c-0.2,0-0.4-0.1-0.7-0.1C14.8,30.8,14.7,31.3,15,31.4z"/>
				</g>
			</g>
		</g>
		<g>
			<g>
				<path fill="#FF931E" d="M10.4,37c0,0.8,0,1.6,0,2.4c0,0.3,0.4,0.3,0.5,0.1c0.1-0.4,0-1.3-0.7-1c-0.7,0.4,0.4,1.5,0.7,1.7
					c0.1,0.1,0.4,0.1,0.4-0.1c0.1-0.6,0.1-1.1,0-1.6c0-0.2-0.3-0.2-0.4-0.1c-0.2,0.3-0.3,0.5-0.3,0.9c0,0.3,0.5,0.3,0.5,0
					c0.1-1.2,0-2,1-2.9c0.1-0.1,0.7-0.9,0.8-0.2c0,0.2,0.4,0.2,0.5,0.1c0.4-0.9-0.7-1.6-1.3-0.7c-0.5,0.7,0.3,1.9,0.8,1
					c0.1-0.3-0.2-0.5-0.4-0.3c-0.5,0.4-0.7,0.7-1,1.2c0.2,0.1,0.3,0.1,0.5,0.2c0-0.2,0.1-0.4,0.1-0.5c0.1-0.3-0.2-0.4-0.4-0.2
					c-0.3,0.3-0.5,0.5-0.8,0.9c0.2,0.1,0.3,0.1,0.5,0.2c0-0.2,0-0.3,0.1-0.5c0-0.3-0.3-0.4-0.5-0.2c-0.1,0.2-0.1,0.2-0.1,0.4
					c0,0.2,0.3,0.3,0.4,0.2c0.6-0.6,1.4-1.2,1.5-2.1c0-0.3-0.4-0.3-0.5-0.1c-0.3,1.1-0.5,2.3-0.7,3.5c0.2,0,0.3,0,0.5,0.1
					c0-0.6,0-1.6-0.7-1.9c-0.1,0-0.2-0.1-0.3,0c-0.9,0.7,0.2,2.3,0.1,3.2c0.2,0,0.3,0,0.5,0c-0.1-0.8-0.1-1.7-0.1-2.5
					c0-0.3-0.5-0.3-0.5,0c-0.1,0.9,0,1.7,0.2,2.5c0.1,0.2,0.4,0.2,0.5,0.1c0.3-0.6,0.5-1.1,0.7-1.7c0.1-0.3-0.4-0.4-0.5-0.1
					c-0.1,0.4-0.2,0.7-0.3,1.1c0,0.2,0.2,0.5,0.4,0.2c0.2-0.3,0.5-0.6,0.6-0.9c-0.2-0.1-0.3-0.1-0.5-0.2c-0.1,0.4-0.2,0.7-0.5,1
					c0.1,0.1,0.3,0.2,0.4,0.3c0.2-0.3,0.4-0.6,0.5-0.8c-0.1-0.1-0.3-0.2-0.4-0.3c-0.2,0.4-0.3,0.7-0.3,1.1c0,0.2,0.2,0.4,0.4,0.2
					c0.2-0.2,0.5-0.5,0.7-0.7c-0.1-0.1-0.3-0.2-0.4-0.2c-0.1,0.2-0.1,0.4-0.2,0.5c-0.1,0.3,0.3,0.5,0.4,0.3c0.2-0.3,0.4-0.7,0.7-1
					c-0.1-0.1-0.3-0.2-0.4-0.3c-0.1,0.2-0.2,0.4-0.4,0.6c-0.2,0.3,0.3,0.5,0.4,0.3c0.1-0.1,0.2-0.3,0.3-0.4c0.2-0.3-0.3-0.5-0.4-0.3
					c-0.2,0.3-0.3,0.5-0.5,0.8c-0.1,0.2,0.2,0.5,0.4,0.3c0.2-0.2,0.4-0.5,0.6-0.7c-0.1-0.1-0.3-0.2-0.4-0.3c0,0.1-0.1,0.1-0.1,0.2
					c-0.1,0.2,0.2,0.5,0.4,0.3c0.1-0.1,0.2-0.2,0.2-0.3c-0.1-0.1-0.3-0.2-0.4-0.3c-0.5,0.6-0.9,1.3-1.4,1.9c0.1,0.1,0.3,0.2,0.4,0.3
					c0.3-0.4,0.5-0.8,0.8-1.2c-0.2-0.1-0.3-0.1-0.5-0.2c-0.1,0.2-0.2,0.4-0.3,0.6c-0.2,0.2,0.2,0.5,0.4,0.3c0.4-0.4,0.7-0.8,1.1-1.2
					c-0.1-0.1-0.3-0.2-0.4-0.3c-0.1,0.3-0.3,0.7-0.4,1c-0.1,0.3,0.2,0.5,0.4,0.3c0.3-0.4,0.5-0.8,0.8-1.1c-0.2-0.1-0.3-0.1-0.5-0.2
					c-0.1,0.2-0.1,0.4-0.2,0.5c-0.1,0.3,0.2,0.4,0.4,0.2c0.2-0.2,0.4-0.4,0.7-0.6c-0.1-0.1-0.3-0.2-0.4-0.2
					c-0.2,0.6-0.5,1.1-0.8,1.6c-0.2,0.3,0.2,0.5,0.4,0.3c0.2-0.3,0.4-0.5,0.6-0.8c-0.1-0.1-0.3-0.2-0.4-0.3
					c-0.1,0.1-0.1,0.3-0.2,0.4c0.2,0,0.3,0.1,0.5,0.1c0-0.1,0-0.2,0-0.3c0-0.2-0.2-0.3-0.4-0.2c-0.4,0.3-0.9,0.7-1.3,1
					c0.1,0.1,0.2,0.2,0.4,0.3c0.2-0.6,1.2-2.3,0.4-2.8c-0.6-0.4-1,0.4-1.2,0.8c-0.1,0.2,0.2,0.4,0.4,0.3c0-0.1,0-0.1,0-0.2
					c0.2,0,0.3,0,0.5,0.1c-0.1-0.9-0.2-2.3-0.9-2.9c-0.1-0.1-0.2-0.1-0.2-0.1c-0.8,0.3-0.8,1.4-0.4,2c0.7,1.2,2.6,1.5,3.8,1.1
					c-0.1-0.1-0.2-0.2-0.3-0.3c-0.1,0.6-0.4,1-1,1.4c0.1,0.1,0.2,0.2,0.4,0.3c0.2-0.6,0.5-1,0.9-1.4c-0.1-0.1-0.2-0.2-0.4-0.4
					c-0.3,0.4-0.6,0.8-0.8,1.3c-0.1,0.2,0.1,0.5,0.3,0.4c0.6-0.3,1.1-0.6,1.5-1.1c0.2-0.2-0.2-0.5-0.4-0.3c-0.5,0.5-1,0.9-1.4,1.4
					c0.1,0.1,0.2,0.2,0.4,0.4c0.1-0.1,1-1,1-1.1c-0.1-0.2-0.9,0.8-0.9,0.8c-0.2,0.2,0.1,0.6,0.4,0.4c0.5-0.5,0.9-0.9,1.5-1.3
					c-0.1-0.1-0.2-0.3-0.3-0.4c-0.5,0.5-0.9,1-1.3,1.5c-0.2,0.2,0.2,0.5,0.4,0.3c0.2-0.2,1-1.6,1.4-1.5c0-0.1-0.1-0.3-0.1-0.4
					c-0.6,0.6-1.2,1.1-1.8,1.7c0.1,0.1,0.3,0.2,0.4,0.3c0.3-0.6,0.7-1.1,1.2-1.6c0.2-0.2-0.1-0.6-0.4-0.4c-0.5,0.5-0.9,1.1-1.2,1.7
					c-0.1,0.2,0.2,0.5,0.4,0.3c0.6-0.6,1.2-1.2,1.8-1.7c0.1-0.1,0.1-0.4-0.1-0.4c-0.9-0.2-1.5,1.1-1.9,1.6c0.1,0.1,0.3,0.2,0.4,0.3
					c0.4-0.5,0.8-1,1.2-1.4c0.2-0.2-0.1-0.6-0.3-0.4C15.5,40,15,40.4,14.6,41c0.1,0.1,0.2,0.2,0.4,0.4c0.3-0.4,1.4-1.3,0.8-1.9
					c-0.1-0.1-0.3-0.1-0.4,0c-0.4,0.5-0.8,1-1.3,1.4c-0.2,0.2,0.1,0.6,0.4,0.4c0.5-0.5,1-0.9,1.4-1.4c-0.1-0.1-0.3-0.2-0.4-0.3
					c-0.3,0.4-0.7,0.7-1.2,0.9c0.1,0.1,0.2,0.2,0.3,0.4c0.2-0.4,0.4-0.8,0.7-1.1c0.2-0.2-0.1-0.6-0.4-0.4c-0.5,0.5-0.8,1-1,1.6
					c-0.1,0.2,0.2,0.4,0.4,0.3c0.6-0.4,1-0.9,1.2-1.7c0.1-0.2-0.1-0.4-0.3-0.3c-0.8,0.2-2.3,0.1-2.8-0.5c-0.3-0.1-0.4-0.4-0.3-0.7
					c-0.1-0.7,0-0.7,0.2-0.2c0.2,0.5,0.3,1.1,0.3,1.7c0,0.3,0.4,0.3,0.5,0.1c0,0,0-0.1,0-0.1c0-0.1,0-0.2-0.1-0.2
					c-0.2-0.2-0.4-0.2-0.7,0c0.1,0.1,0.2,0.2,0.4,0.3c0.1,0,0.3,0.1,0.4,0.1c-0.1,0.2-0.1,0.4-0.2,0.6c-0.1,0.3-0.2,0.7-0.4,1
					c-0.1,0.2,0.2,0.4,0.4,0.3c0.4-0.3,0.9-0.7,1.3-1c-0.1-0.1-0.3-0.1-0.4-0.2c0,0.1,0,0.2,0,0.3c0,0.2,0.4,0.4,0.5,0.1
					c0.1-0.1,0.1-0.3,0.2-0.4c0.1-0.3-0.2-0.5-0.4-0.3c-0.2,0.3-0.4,0.5-0.6,0.8c0.1,0.1,0.3,0.2,0.4,0.3c0.3-0.6,0.6-1.1,0.8-1.8
					c0.1-0.3-0.2-0.4-0.4-0.2c-0.2,0.2-0.4,0.4-0.7,0.6c0.1,0.1,0.3,0.2,0.4,0.2c0.1-0.2,0.1-0.4,0.2-0.5c0.1-0.3-0.3-0.4-0.5-0.2
					c-0.3,0.4-0.5,0.8-0.8,1.1c0.1,0.1,0.3,0.2,0.4,0.3c0.1-0.3,0.3-0.7,0.4-1c0.1-0.2-0.2-0.5-0.4-0.3c-0.4,0.4-0.7,0.8-1.1,1.2
					c0.1,0.1,0.3,0.2,0.4,0.3c0.3-0.4,0.2-0.2,0.3-0.7c0.1-0.3-0.3-0.4-0.5-0.2c-0.3,0.4-0.5,0.8-0.8,1.2c-0.2,0.3,0.2,0.5,0.4,0.3
					c0.5-0.6,0.9-1.3,1.4-1.9c0.2-0.2-0.2-0.5-0.4-0.3c-0.1,0.1-0.2,0.2-0.2,0.3c0.1,0.1,0.3,0.2,0.4,0.3c0-0.1,0.1-0.1,0.1-0.2
					c0.1-0.2-0.2-0.5-0.4-0.3c-0.2,0.2-0.4,0.5-0.6,0.7c0.1,0.1,0.3,0.2,0.4,0.3c0.2-0.3,0.3-0.5,0.5-0.8c-0.1-0.1-0.3-0.2-0.4-0.3
					c-0.1,0.1-0.2,0.3-0.3,0.4c0.1,0.1,0.3,0.2,0.4,0.3c0.1-0.2,0.2-0.4,0.4-0.6c0.1-0.2-0.2-0.5-0.4-0.3c-0.3,0.3-0.5,0.7-0.7,1.1
					c0.1,0.1,0.3,0.2,0.4,0.3c0.2-0.3,0.2-0.3,0.3-0.7c0.1-0.2-0.2-0.4-0.4-0.2c-0.2,0.2-0.5,0.5-0.7,0.7c0.1,0.1,0.3,0.2,0.4,0.2
					c0-0.3,0.1-0.7,0.3-1c0.1-0.3-0.3-0.5-0.4-0.3c-0.2,0.3-0.4,0.6-0.5,0.8c-0.2,0.3,0.3,0.5,0.4,0.3c0.2-0.4,0.4-0.7,0.5-1.1
					c0.1-0.3-0.3-0.4-0.5-0.2c-0.2,0.3-0.3,0.6-0.6,0.8c0.1,0.1,0.3,0.2,0.4,0.2c0.1-0.4,0.2-0.7,0.3-1.1c-0.2,0-0.3-0.1-0.5-0.1
					c-0.1,0.6-0.3,1.1-0.6,1.6c0.2,0,0.3,0,0.5,0.1c-0.2-0.8-0.3-1.6-0.2-2.4c-0.2,0-0.3,0-0.5,0c0,0.9,0,1.7,0.1,2.5
					c0,0.3,0.5,0.3,0.5,0c0-0.4,0-0.8-0.1-1.2c-0.1-0.2-0.2-0.5-0.2-0.7c0.1-0.6,0.2-0.4,0.2,0.6c0,0.3,0.4,0.4,0.5,0.1
					c0.2-1.2,0.4-2.3,0.7-3.5c-0.2,0-0.3,0-0.5-0.1c-0.1,0.7-0.9,1.3-1.4,1.7c0.1,0.1,0.3,0.1,0.4,0.2c0-0.1,0-0.1,0.1-0.2
					c-0.2-0.1-0.3-0.1-0.5-0.2c0,0.2,0,0.3-0.1,0.5c0,0.3,0.3,0.4,0.5,0.2c0.2-0.3,0.4-0.6,0.7-0.8c-0.1-0.1-0.3-0.2-0.4-0.2
					c0,0.2-0.1,0.4-0.1,0.5c-0.1,0.3,0.3,0.5,0.5,0.2c0.2-0.5,0.5-0.8,0.9-1.1c-0.1-0.1-0.3-0.2-0.4-0.3c0.2-0.1,0.3-0.2,0.5-0.3
					c0.2,0,0.3,0,0.5,0.1c-0.1-0.7-0.6-1.1-1.2-0.6c-0.5,0.5-1.1,1.1-1.4,1.8c-0.3,0.7-0.1,1.4-0.2,2.1c0.2,0,0.3,0,0.5,0
					c0.1-0.2,0.1-0.4,0.2-0.6c-0.1,0-0.3-0.1-0.4-0.1c0.1,0.5,0.1,0.9,0,1.4c0.1,0,0.3-0.1,0.4-0.1c-0.2-0.3-0.5-0.5-0.8-0.6
					c0.2,0,0.3,0,0.5,0.1c0-0.8,0-1.6,0-2.4C10.9,36.7,10.4,36.7,10.4,37L10.4,37z"/>
			</g>
			<g>
				<g>
					<path fill="#FF931E" d="M10.2,37c0,0.6-0.4,2.3,0.2,2.7c0.3,0.2,0.6,0.1,0.8-0.2c0.4-0.6-0.3-1.8-1.1-1.3
						c-0.8,0.5,0.1,2,0.8,2.2c1.1,0.3,1.2-2,0.5-2.3c-0.7-0.3-1.3,1.2-0.7,1.6c0.3,0.2,0.6,0,0.8-0.3c0.1-0.2,0.1-0.7,0.1-0.9
						c0.1-0.7,0.3-1.7,0.9-2.1c0.5-0.3,0.2,0.1,0.7,0.1c0.5,0,0.7-0.2,0.7-0.8c0-1-1.3-1.2-1.8-0.4c-0.6,0.9,0.6,2.4,1.2,1.3
						c0.1-0.3,0.1-0.7-0.2-0.8c-0.7-0.2-1.3,1-1.5,1.4c-0.1,0.2,0,0.3,0.1,0.4c0.2,0.1,0.3,0.1,0.5,0.2c0.1,0.1,0.3-0.1,0.3-0.2
						c0.1-0.4,0.3-1-0.2-1.1c-0.5-0.2-1.1,0.7-1.3,1.1c-0.1,0.1,0,0.3,0.1,0.4c0.2,0.1,0.3,0.1,0.5,0.2c0.1,0,0.3-0.1,0.3-0.2
						c0.1-0.4,0.2-1-0.3-1.1c-0.3-0.1-0.5,0.1-0.7,0.4c-0.4,0.9,0.6,0.8,1,0.5c0.4-0.3,2.2-2.1,1-2.5c-1.1-0.4-1.3,3.2-1.4,3.8
						c0,0.1,0,0.3,0.2,0.3c0.2,0,0.3,0,0.5,0.1c0.2,0,0.3-0.1,0.3-0.2c0-0.6-0.2-2.6-1.3-2.1c-1.1,0.5,0,2.6-0.1,3.4
						c0,0.1,0.1,0.2,0.2,0.2c0.2,0,0.3,0,0.5,0c0.1,0,0.3-0.1,0.2-0.2c0-0.7,0.2-2-0.1-2.5c-0.1-0.1-0.1-0.3-0.2-0.4
						c-0.4-0.2-0.6,0-0.8,0.3c-0.3,0.6,0.1,4.2,1.2,2.6c0.3-0.4,0.9-1.6,0.5-2c-0.3-0.3-0.6-0.1-0.8,0.2c-0.3,0.3-0.5,1.4-0.1,1.7
						c0.6,0.3,1-0.7,1.3-1c0.1-0.2,0-0.3-0.1-0.4c-0.2-0.1-0.3-0.1-0.5-0.2c-0.1-0.1-0.3,0.1-0.3,0.2c-0.1,0.3-0.2,0.7-0.4,0.9
						c-0.1,0.1,0,0.3,0.1,0.3c0.1,0.1,0.3,0.2,0.4,0.3c0.1,0.1,0.3,0,0.3-0.1c0.2-0.3,0.4-0.6,0.5-0.8c0.1-0.1,0-0.3-0.1-0.3
						c-0.1-0.1-0.3-0.2-0.4-0.3c-0.2-0.1-0.3,0-0.4,0.1c-0.2,0.4-0.6,1.2-0.2,1.6c0.5,0.5,1.1-0.4,1.4-0.7c0.1-0.1,0.1-0.3-0.1-0.4
						c-0.1-0.1-0.3-0.2-0.4-0.2c-0.2-0.1-0.3,0-0.4,0.1c-0.2,0.5-0.4,0.9,0.1,1.2c0.1,0,0.2,0,0.3,0c0.5-0.3,0.6-0.7,0.9-1.1
						c0.1-0.1,0.1-0.3-0.1-0.4c-0.1-0.1-0.3-0.2-0.4-0.3c-0.1-0.1-0.3,0-0.3,0.1c-0.2,0.3-0.8,1.5,0.1,1.4c0.5,0,0.9-1,0.4-1.3
						c-0.6-0.3-1.4,0.8-1.2,1.3c0.3,1,1.2-0.2,1.4-0.5c0.1-0.1,0.1-0.3-0.1-0.4c-0.1-0.1-0.3-0.2-0.4-0.3c-0.1-0.1-0.3,0-0.3,0.1
						c-0.5,0.8,0.3,1.2,0.9,0.5c0.1-0.1,0.1-0.3-0.1-0.4c-0.1-0.1-0.3-0.2-0.4-0.3c-0.1-0.1-0.3,0-0.3,0.1c-0.5,0.6-0.9,1.3-1.4,1.9
						c-0.1,0.1,0,0.3,0.1,0.3c0.1,0.1,0.3,0.2,0.4,0.3c0.1,0.1,0.3,0,0.3-0.1c0.3-0.4,0.5-0.8,0.8-1.2c0.1-0.2,0-0.3-0.1-0.4
						c-0.2-0.1-0.3-0.1-0.5-0.2c-0.1,0-0.2,0-0.3,0.1c-0.2,0.4-0.6,1.1,0,1.3c0.6,0.2,1.3-1,1.6-1.3c0.1-0.1,0.1-0.3-0.1-0.4
						c-0.1-0.1-0.3-0.2-0.4-0.3c-0.1-0.1-0.3,0-0.3,0.1c-0.2,0.4-0.8,1.3-0.2,1.7c0.7,0.4,1.2-1,1.4-1.3c0.1-0.1,0-0.3-0.1-0.4
						C14.3,39.1,14.1,39,14,39c-0.1-0.1-0.3,0.1-0.3,0.2c-0.1,0.4-0.4,0.8,0,1.1c0.5,0.3,1-0.4,1.3-0.6c0.1-0.1,0.1-0.3-0.1-0.4
						c-0.1-0.1-0.3-0.2-0.4-0.2c-0.2-0.1-0.3,0-0.4,0.1c-0.3,0.6-0.8,1.3-0.8,2c0,0.1,0,0.2,0.1,0.2c0.7,0.4,1-0.4,1.4-0.9
						c0.1-0.1,0-0.3-0.1-0.3c-0.1-0.1-0.3-0.2-0.4-0.3c-0.1-0.1-0.3,0-0.3,0.1c-0.1,0.1-0.1,0.3-0.2,0.4c-0.1,0.1,0,0.3,0.1,0.4
						c0.2,0,0.3,0.1,0.5,0.1c0.2,0,0.3-0.1,0.3-0.2c0.1-1.7-1.5-0.2-2.1,0.2c-0.2,0.1-0.2,0.3,0,0.4c0.1,0.1,0.2,0.2,0.4,0.3
						c0.1,0.1,0.3,0,0.3-0.1c0.3-0.7,1.5-3.2-0.1-3.2c-0.9,0-1.7,1.8-0.6,1.7c0.1,0,0.3-0.1,0.2-0.2c0-0.1,0-0.1,0-0.2
						c-0.1,0.1-0.2,0.2-0.3,0.2c0.2,0,0.3,0,0.5,0.1c0.1,0,0.3-0.1,0.3-0.2c-0.1-0.9-0.1-2.6-1-3.1c-0.7-0.4-1.2,0.4-1.3,1
						c-0.4,2.3,2.8,2.9,4.4,2.6c0.2,0,0.2-0.3,0.1-0.4c-0.1-0.1-0.2-0.2-0.3-0.3c-0.1-0.1-0.4-0.1-0.4,0.1c-0.1,0.5-0.4,0.9-0.9,1.2
						c-0.2,0.1-0.2,0.3,0,0.4c0.1,0.1,0.2,0.2,0.4,0.3c0.1,0.1,0.3,0,0.3-0.1c0.2-0.5,0.5-0.9,0.9-1.4c0.1-0.1,0.1-0.3,0-0.4
						c-0.1-0.1-0.2-0.2-0.4-0.4c-0.1-0.1-0.3-0.1-0.4,0.1c-0.3,0.4-1.2,1.4-0.7,1.9c0.4,0.4,1.2-0.3,1.5-0.5
						c0.3-0.3,0.9-0.7,0.5-1.2c-0.6-0.7-1.9,1.1-2.2,1.4c-0.1,0.1-0.1,0.3,0,0.4c0.1,0.1,0.2,0.2,0.4,0.4c0.1,0.1,0.3,0.1,0.4,0
						c0.3-0.3,0.8-0.7,1-1.1c0.1-0.2,0-0.3-0.1-0.4c-0.4-0.1-1.3,0.8-1.3,1.3c0.2,1.4,2.1-0.9,2.3-1c0.1-0.1,0.1-0.2,0-0.3
						c-0.1-0.1-0.2-0.3-0.3-0.4c-0.1-0.1-0.3-0.2-0.4-0.1c-0.2,0.2-2.2,1.9-1.1,2.3c0.8,0.3,1-1.5,1.8-1.5c0.2,0,0.3-0.2,0.2-0.3
						c0-0.1-0.1-0.3-0.1-0.4c0-0.2-0.3-0.2-0.4-0.1c-0.6,0.6-1.2,1.1-1.8,1.7c-0.1,0.1-0.1,0.3,0.1,0.4c0.1,0.1,0.3,0.2,0.4,0.3
						c0.1,0.1,0.3,0,0.3-0.1c0.1-0.1,2.2-2.6,0.7-2.4c-0.5,0.1-2.3,2.3-1.3,2.6c0.6,0.2,1.3-0.9,1.6-1.2c0.3-0.3,1.1-0.7,0.8-1.3
						c-0.6-1.3-2.3,1.2-2.5,1.5c-0.1,0.1,0,0.3,0.1,0.3c0.1,0.1,0.3,0.2,0.4,0.3c0.1,0.1,0.3,0,0.3-0.1c0.2-0.2,1.9-1.7,1.1-2.2
						c-0.7-0.4-1.7,1.1-2.1,1.4c-0.1,0.1-0.1,0.3,0,0.4c0.1,0.1,0.2,0.2,0.4,0.4c0.1,0.1,0.3,0.1,0.4,0c0.4-0.5,1.3-1.2,1-1.9
						c-0.3-0.8-0.8-0.4-1.2,0.1c-0.3,0.3-1.5,1.2-0.9,1.8c0.6,0.6,1.8-1.1,2.1-1.4c0.1-0.1,0.1-0.3-0.1-0.4
						c-0.1-0.1-0.3-0.2-0.4-0.3c-0.1-0.1-0.2,0-0.3,0c-0.3,0.4-0.7,0.7-1.1,0.9c-0.1,0-0.2,0.2-0.1,0.3c0.1,0.1,0.2,0.2,0.3,0.4
						c0.1,0.1,0.3,0.2,0.4,0c0.3-0.6,1.1-1.3,0.5-1.9c-0.1-0.1-0.2-0.1-0.2-0.1c-0.6,0.2-1.7,1.6-1.4,2.2c0.4,0.8,1.2-0.1,1.5-0.5
						c0.4-0.5,0.9-1.5,0-1.7c-0.6-0.1-1.2,0.2-1.8,0c-0.3-0.1-0.8-0.2-1-0.5c0,0-0.3-0.9-0.2-0.9c-0.1,0-0.3,0-0.4-0.1
						c0.1,0.2,0.5,3.4,1.4,2.2c0.5-0.7-0.5-1.1-1-0.8c-0.2,0.1-0.1,0.3,0,0.4c-0.3-0.2,0.6,0.5,0.6,0.4c0.1,0.2-0.3,0.8-0.3,1
						c-0.1,0.2-0.2,0.5-0.1,0.7c0.5,0.7,1.6-0.6,2-0.9c0.1-0.1,0.2-0.3,0-0.4c-0.1-0.1-0.3-0.1-0.4-0.2c-0.2-0.1-0.4,0-0.4,0.2
						c-0.1,0.9,1,1.2,1.1,0.2c0-0.3,0-0.6-0.4-0.7c-0.5-0.1-0.9,0.8-1.1,1.1c-0.1,0.1,0,0.3,0.1,0.3c0.1,0.1,0.3,0.2,0.4,0.3
						c0.1,0.1,0.3,0,0.3-0.1c0.2-0.4,1.2-1.8,0.8-2.3c-0.5-0.5-1.1,0.3-1.4,0.5c-0.1,0.1-0.1,0.3,0.1,0.4c0.1,0.1,0.3,0.2,0.4,0.2
						c0.2,0.1,0.3,0,0.4-0.1c0.1-0.4,0.2-0.5,0.2-0.9c0-0.1-0.1-0.1-0.2-0.2c-0.8-0.3-1.1,0.8-1.5,1.3c-0.1,0.1,0,0.3,0.1,0.3
						c0.1,0.1,0.3,0.2,0.4,0.3c0.1,0.1,0.3,0,0.3-0.1c0.2-0.5,0.8-1.2,0.2-1.7c-0.1-0.1-0.2-0.1-0.2-0.1c-0.6,0.2-1,0.9-1.4,1.4
						c-0.1,0.1-0.1,0.3,0.1,0.4c0.1,0.1,0.3,0.2,0.4,0.3c0.1,0.1,0.3,0,0.3-0.1c0.3-0.3,0.6-1.3-0.1-1.4c-0.7-0.1-1.3,1.3-1.3,1.8
						c0,0.1,0,0.2,0.1,0.2c0.3,0.2,0.4,0.2,0.7,0c0.3-0.2,1.4-1.7,1.4-2c0.2-0.9-0.7-0.7-1.1-0.2c-0.1,0.1-0.1,0.3,0.1,0.4
						c0.1,0.1,0.3,0.2,0.4,0.3c0.1,0.1,0.3,0,0.3-0.1c0.2-0.3,0.3-0.7-0.1-0.9c-0.5-0.2-0.9,0.5-1.1,0.8c-0.1,0.1-0.1,0.3,0.1,0.4
						c0.1,0.1,0.3,0.2,0.4,0.3c0.1,0.1,0.3,0,0.3-0.1c0.2-0.3,0.3-0.5,0.5-0.8c0.1-0.1,0-0.3-0.1-0.3c-0.1-0.1-0.3-0.2-0.4-0.3
						c-0.1-0.1-0.3,0-0.3,0.1c-0.1,0.1-0.2,0.3-0.3,0.4c-0.1,0.1,0,0.3,0.1,0.3c0.1,0.1,0.3,0.2,0.4,0.3c0.1,0.1,0.3,0,0.3-0.1
						c0.2-0.3,0.8-1.1,0.1-1.4c-0.6-0.2-1.1,0.9-1.3,1.2c-0.1,0.1,0,0.3,0.1,0.3c0.1,0.1,0.3,0.2,0.4,0.3c0.1,0.1,0.3,0,0.3-0.1
						c0.2-0.3,0.5-0.9,0.2-1.2c-0.5-0.5-1.2,0.4-1.4,0.7c-0.1,0.1-0.1,0.3,0.1,0.4c0.1,0.1,0.3,0.2,0.4,0.2c0.1,0.1,0.3,0,0.4-0.1
						c0.1-0.6,0.6-1.3-0.1-1.7c-0.1,0-0.2,0-0.3,0c-0.4,0.2-1.1,1-0.9,1.5c0.2,0.4,0.6,0.3,0.9,0.1c0.3-0.2,0.8-1.3,0.4-1.7
						c-0.6-0.5-1,0.6-1.3,0.9c-0.1,0.1-0.1,0.3,0.1,0.4c0.1,0.1,0.3,0.2,0.4,0.2c0.1,0.1,0.3,0,0.4-0.1c0.1-0.4,0.2-0.7,0.3-1.1
						c0-0.1,0-0.3-0.2-0.3c-0.2,0-0.3-0.1-0.5-0.1c-0.1,0-0.3,0-0.3,0.2c-0.2,0.5-0.4,1-0.6,1.5c-0.1,0.2,0,0.4,0.2,0.4
						c0.2,0,0.3,0,0.5,0.1c0.2,0,0.3-0.2,0.2-0.3c-0.2-0.8-0.2-1.5-0.2-2.3c0-0.1-0.1-0.2-0.2-0.2c-0.2,0-0.3,0-0.5,0
						c-0.1,0-0.2,0.1-0.2,0.2c0,0.4-0.4,3.1,0.6,3c1.2-0.1,0-2.2,0.2-2.6c-0.1,0-0.3,0-0.4,0.1c0.3,0.3-0.3,1.5,0.7,1.2
						c0.3-0.1,0.3-0.6,0.4-0.8c0.2-1,0.4-2,0.7-3c0-0.1,0-0.3-0.2-0.3c-0.2,0-0.3,0-0.5-0.1c-0.1,0-0.3,0-0.3,0.2
						c-0.2,0.7-0.8,1.2-1.3,1.6c-0.2,0.1-0.1,0.4,0.1,0.4c0.1,0.1,0.3,0.1,0.4,0.2c0.1,0,0.2,0,0.3-0.1c0-0.1,0-0.1,0.1-0.2
						c0.1-0.2,0-0.3-0.1-0.4c-0.2-0.1-0.3-0.1-0.5-0.2c-0.1,0-0.3,0.1-0.3,0.2c-0.1,0.4-0.2,1,0.3,1.1c0.5,0.1,0.9-0.7,1.2-1
						c0.1-0.1,0.1-0.3-0.1-0.4c-0.1-0.1-0.3-0.2-0.4-0.2c-0.1-0.1-0.3,0-0.4,0.1c-0.1,0.4-0.3,1.1,0.3,1.2c0.6,0.1,1-1,1.4-1.3
						c0.1-0.1,0.1-0.3-0.1-0.4c-0.1-0.1-0.3-0.2-0.4-0.3c0,0.1,0,0.3,0,0.4c0.3-0.1,0.5-0.1,0.8-0.2c0.2,0,0.3-0.2,0.2-0.3
						c-0.2-0.9-0.8-1.2-1.6-0.7c-1.4,1-1.6,2.4-1.7,4c0,0.1,0.1,0.2,0.2,0.2c0.2,0,0.3,0,0.5,0c0.1,0,0.2-0.1,0.2-0.2
						c0.1-0.2,0.1-0.4,0.2-0.6c0-0.1,0-0.3-0.2-0.3c-0.1,0-0.3-0.1-0.4-0.1c-0.2-0.1-0.3,0.1-0.3,0.3c0,0.4,0,0.8,0,1.2
						c0,0.2,0.1,0.4,0.3,0.3c0.1,0,0.3-0.1,0.4-0.1c0.2-0.1,0.2-0.3,0.1-0.4c-0.3-0.4-0.5-0.5-0.9-0.6c0,0.2-0.1,0.3-0.1,0.5
						c0.2,0,0.3,0,0.5,0.1c0.2,0,0.3-0.1,0.3-0.2c0-0.5,0.3-2.3-0.2-2.7c-0.3-0.2-0.7-0.1-0.8,0.3c-0.1,0.3,0.3,0.5,0.4,0.3
						c-0.2,0.5,0,1.7,0,2.2c0.1-0.1,0.2-0.2,0.3-0.2c-0.2,0-0.3,0-0.5-0.1c-0.3,0-0.4,0.4-0.1,0.5c0.2,0.2,0.5,0.3,0.7,0.5
						c0-0.1,0.1-0.3,0.1-0.4c-0.1,0-0.3,0.1-0.4,0.1c0.1,0.1,0.2,0.2,0.3,0.3c0.1-0.5,0.1-1,0-1.5c-0.1,0.1-0.2,0.2-0.3,0.3
						c0.1,0,0.2,0.2,0.1,0c-0.2-0.3,0.1-1.1,0.2-1.4c0.1-0.5,0.3-0.7,0.6-1.1c0.2-0.2,1.2-1.5,1.5-0.3c0.1-0.1,0.2-0.2,0.2-0.3
						c-0.6-0.1-0.5-0.1-1,0.2c-0.2,0.1-0.1,0.3,0,0.4c0.1,0.1,0.3,0.2,0.4,0.3c0-0.1,0-0.3-0.1-0.4c-0.2,0.2-0.4,0.4-0.6,0.6
						C12,37,11.8,37.6,11.9,37c-0.1,0-0.2,0.1-0.4,0.1c0.1,0.1,0.3,0.2,0.4,0.2c0-0.1,0-0.3-0.1-0.4c0,0-0.8,0.6-0.5,0.7
						c0-0.1-0.1-0.2-0.1-0.4c-0.1,0-0.1-0.1-0.2-0.1c0,0.1,0.1,0.3,0.1,0.4c0.3-0.3,0.7-0.6,1-1c0.5-0.7,0.4-0.7,0.2,0.3
						c-0.1,0.4-0.2,0.8-0.3,1.2c-0.1,0.3,0,0.6-0.2,0.4c-0.1-0.1,0-0.4-0.1-0.5c-0.1-0.1-0.3-0.1-0.4,0.1c-0.1,0.1-0.1,0.3-0.1,0.5
						c0,0.2,0.1,0.4,0.2,0.6c0,0.2,0.1,1,0.1,0.8c0-0.5-0.1-1-0.1-1.5c0,0.7,0.1,1.3,0.2,2c0.1-0.1,0.2-0.2,0.2-0.3
						c-0.2,0-0.3,0-0.5-0.1c0.1,0.1,0.1,0.3,0.2,0.4c0.2-0.3,0.3-0.7,0.5-1c0.3-0.6-0.1,0.4-0.1,0.5c0.1,0,0.2-0.1,0.4-0.1
						c-0.1-0.1-0.3-0.2-0.4-0.2c0,0.1,0,0.3,0.1,0.4c0.1-0.1,0.2-0.2,0.3-0.3c0.2-0.4,0.3-0.4,0.1,0.1c0-0.1,0.1-0.1,0.2-0.1
						c-0.1,0.2-0.1,0.4-0.1,0.7c0.1,0,0.2-0.1,0.4-0.1c-0.1-0.1-0.3-0.2-0.4-0.2c0,0.1,0,0.3,0.1,0.4c0.2-0.2,0.6-0.6,0.9-0.7
						c0.5-0.2-0.2,0.2-0.3,0.1c0,0.1,0,0.3,0.1,0.4c0.3-0.2,0.4-0.5,0.4-0.9c0,0.1,0,0.3,0.1,0.4c-0.2,0.3-0.7,0.9-0.9,1.2
						c0.1-0.1,0.3-0.4,0.3-0.5c0-0.1,0.2,0.3-0.2-0.1c0,0.1,0,0.3,0.1,0.4c0.2-0.2,0.3-0.4,0.5-0.6c0.1-0.1,0.2-0.2,0.3-0.3
						c0.2,0,0.2,0.1,0,0.2c-0.1,0.2-0.1,0.2,0,0.1c0.1,0,0.2-0.1,0.2-0.2c0.1,0,0.4-0.7,0.2,0c0.1,0,0.2-0.1,0.4-0.1
						c-0.1-0.1-0.3-0.2-0.4-0.2c0,0.1,0,0.3,0.1,0.4c0.6-0.5,0.2,0,0.2,0.5c-0.2,0.1-0.2,0.2-0.1,0.2c0.1,0.1,0.2-0.1,0.2-0.4
						c-0.1,0.1-0.3,0.1-0.4,0.2c0.1,0.1,0.3,0.1,0.4,0.2c0-0.1,0-0.3,0-0.4c-0.2,0.1-1,1-1.2,0.7c0-0.1,0.4-1.1,0.4-1.3
						c0-0.1,0-0.3-0.2-0.3c-0.2-0.1-0.5-0.2-0.7-0.4c0,0.1,0,0.3,0,0.4c0.7-0.4,0.1-1.6-0.2-2.1c-0.1-0.1-0.3-0.2-0.4-0.1
						c-0.2,0.2-0.2,0.9-0.1,1.1c0.1,0.5,0.6,0.8,1.1,1c0.3,0.1,0.7,0.2,1,0.2c0.2,0,1-0.1,1.1,0c0.2,0.2,0,0.6-0.1,0.8
						c-0.2,0.3-0.5,0.5-0.4,0.2c0-0.1,0.3-0.5,0.4-0.6c0.2-0.1-0.3,0.6-0.4,0.7c0.1,0,0.3,0,0.4,0c-0.2-0.2,0.7-0.8,0.9-0.6
						c0-0.1,0-0.3-0.1-0.4c-0.3,0.3-0.7,0.9-1.1,1c0.2-0.1,0.6-1.2,0.6-0.5c0,0.3-0.3,0.5-0.3,0.6c0,0.1-0.1,0.1,0.2-0.2
						c0.2-0.2,0.4-0.4,0.6-0.6c0.4-0.2-0.4,0.6-0.5,0.7c-0.2,0.2,0,0,0.1-0.1c0.1-0.2,0.3-0.6,0.5-0.7c0.5-0.3,0.2,0.2,0,0.3
						c-0.1,0.1-0.7,0.7-0.7,0.7c-0.3-0.1,0.9-1.4,0.5-0.8c-0.2,0.2-0.6,1-0.9,0.8c0,0.1,0,0.3,0.1,0.4c0.6-0.6,1.2-1.2,1.8-1.7
						c-0.1,0-0.3-0.1-0.4-0.1c0,0.1,0.1,0.3,0.1,0.4c0.1-0.1,0.2-0.2,0.2-0.3c-0.4,0-0.7,0.4-1,0.7c-0.2,0.2-0.4,0.5-0.5,0.7
						c0.1-0.2,0.8-1,1.2-1.4c-0.1,0-0.3,0-0.4-0.1c0.2,0.2-0.8,1.3-1.1,1.4c0.1,0,0.5-0.7,0.6-0.7c0-0.1-0.1-0.2-0.1-0.4
						c-0.1,0.3-0.4,0.5-0.6,0.7c-0.6,0.7,0.2-0.2,0.4-0.4c1.2-1.1-0.2,0.3-0.3,0.2c-0.3-0.3,0.3-0.9,0.5-1.1c-0.1,0-0.3,0-0.4,0.1
						c0.3,0.3-0.5,1.2-0.6,1.1c0,0.1,0,0.3,0,0.4c0.6-0.4,0.9-0.8,1.1-1.5c-0.1,0-0.3,0.1-0.4,0.1c0.1,0.1,0.2,0.2,0.3,0.3
						c0-0.1,0.1-0.3,0.1-0.4c-1.1,0.2-2.4,0.1-3.3-0.7c-0.3-0.2-0.4-0.4-0.5-0.8c0.6-1,0.9-1,1.1-0.1c0.2,0.5,0.2,1.1,0.3,1.6
						c0.1-0.1,0.2-0.2,0.3-0.2c-0.2,0-0.3,0-0.5-0.1c-0.2,0-0.3,0.1-0.3,0.2c0.3-0.4,0.6-0.3,1.1,0.2c0,0.2-0.1,0.3-0.1,0.5
						c-0.1,0.2-0.2,0.4-0.3,0.6C13,41,13,41,12.9,40.7c0,0.1,0,0.3,0,0.4c0.1,0,1.3-1,1.3-0.7c0.1-0.1,0.2-0.2,0.3-0.2
						c-0.2,0-0.3-0.1-0.5-0.1c0,0.1,0.1,0.2,0.1,0.4c-0.1,0-0.1,0-0.2,0c-0.2,0-0.1-0.1,0.2-0.4c0.1-0.3,0.3-0.7,0.4-0.9
						c-0.1,0-0.2,0.1-0.4,0.1c0.1,0.1,0.3,0.2,0.4,0.2c0-0.1,0-0.3-0.1-0.4c-0.4,0.3-0.7,0.2-0.3,0.4c0-0.1-0.1-0.2-0.1-0.4
						c-0.1,0.2-0.6,0.7-0.6,0.8c0,0,0-0.5,0.3-0.3c0-0.1,0-0.3-0.1-0.4c-0.2,0.2-0.5,0.5-0.7,0.8c-0.2,0.4-0.4,0,0,0.2
						c0-0.1-0.1-0.2-0.1-0.4c-1.3,2,0.3-0.6,0.7-0.3c0-0.1,0-0.3-0.1-0.4c0,0.2,0,0.3-0.1,0.5c0-0.1,0-0.3-0.1-0.4
						c-0.7,0.8-0.2-0.1,0.1,0.1c0-0.1,0-0.3-0.1-0.4c-0.1,0.1-0.7,1.1-0.5,0.4c-0.1,0-0.2,0.1-0.4,0.1c0.1,0.1,0.3,0.2,0.4,0.2
						c0-0.1,0-0.3-0.1-0.4c-0.7,0.7-0.7,0.2-0.4-0.4c-0.1,0-0.2,0.1-0.4,0.1c0,0.1,0,0.2,0.1,0.3c-0.1,0.2-0.1,0.2,0,0
						c0.3-0.1-0.3-0.5,0.4-0.2c0-0.1-0.1-0.2-0.1-0.4c-0.3,0.4-0.8,0.5-0.4,0.1c0,0-0.2,1.2-0.6,0.8c-0.2-0.2-0.1-1.3-0.1-1.6
						c0,0.4,0,0.9,0,1.3c0.1,1.1-0.1-0.1-0.2-0.5c-0.1-0.5-0.4-0.8,0.1-1.2c0.7-0.6,0.5,0.7,0.5,1.1c0.1-0.1,0.2-0.2,0.3-0.2
						c-0.6-0.1,0.3-2.3,0.3-2.7c0-0.7-0.3,0.5-0.6,0.7c-0.2,0.2-0.6,0.7-0.9,0.6c0,0.1,0.1,0.2,0.1,0.4c0.3-0.5,0.8-0.5,0.5-0.7
						c0,0.1,0.1,0.2,0.1,0.4c0.2-0.4,2-2,0.9-1.9c-0.5,0-1.1,1-1.3,1.4c-0.2,0.4-0.3,0.7-0.3,1.1c0,0.2-0.1,0.4-0.1,0.6
						c0,0.3,0.2,0.1,0.2,0.6c-0.1,0.2-0.1,0.4-0.2,0.6c-0.1-0.1-0.2-0.2-0.2-0.3c-0.1-0.1-0.2-0.2-0.2-0.3c-0.2-0.2-0.2-0.3,0.2-0.1
						c0.2-0.7,0-1.6,0-2.2C10.7,36.7,10.2,36.7,10.2,37z"/>
				</g>
			</g>
		</g>
		<g>
			<path fill="#FF931E" d="M27.3,23.4c-0.1,0.3-0.1,0.3,0,0.7c0,0.1,0.2,0.2,0.3,0.2c0.9-0.3,1.2-0.6,1.3,0.5c0,0.2,0.2,0.3,0.4,0.2
				c1-0.5,1.8-1.4,1.9,0.1c0,0.2,0.2,0.3,0.3,0.2c1-0.4,1.9-0.8,1.8,0.8c0,0.2,0.2,0.3,0.4,0.2c0.7-0.5,2-1.9,2.1-0.5
				c0,0.1,0.2,0.3,0.3,0.2c0.8-0.3,1.1-0.6,1.2,0.3c0,0.3,0.5,0.3,0.5,0c0-0.4,0-0.7,0-1.1c0-0.1-0.2-0.3-0.3-0.2
				c-0.8,0.3-1.1,0.5-1.2-0.4c0-0.2-0.2-0.3-0.4-0.2c-0.4,0.2-1.5,1.2-1.9,1.2c0,0-0.3-1.1-0.4-1.3c0-0.2-0.2-0.2-0.4-0.1
				c-0.8,0.4-1.6,0.8-1.5-0.4c0-0.2-0.2-0.3-0.4-0.2c-0.8,0.4-1.9,1.4-1.9,0c0-0.2-0.2-0.3-0.3-0.2c0,0-1.3,0.3-1.3,0.3
				C27.9,23.3,27.4,23.1,27.3,23.4L27.3,23.4z"/>
		</g>
		<g>
			<path fill="#FF931E" d="M29.6,28.1c0,0.4,0,0.3,0.1,0.7c0.1,0.2,0.3,0.1,0.4,0.1c0.5-0.4,0.9-0.7,1.4-0.9c-0.1,0-0.2-0.1-0.4-0.1
				c0.1,0.6,0.1,1.3,0.3,1.8c0,0.1,0.1,0.1,0.2,0.1c0.7,0,1.2-0.4,1.8-0.8c-0.1,0-0.2-0.1-0.4-0.1c0.2,0.3,0.2,0.7,0.3,1
				c0,0.2,0.2,0.3,0.4,0.2c0.5-0.3,1-0.7,1.4-1c-0.1,0-0.2-0.1-0.4-0.1c0.1,0.5,0.2,1.1,0.3,1.6c0,0.2,0.2,0.3,0.4,0.2
				c0.6-0.3,1.2-0.7,1.8-1c-0.1-0.1-0.3-0.1-0.4-0.2c0,0.1,0,0.2,0,0.2c0,0.3,0.5,0.3,0.5,0c0-0.1,0-0.2,0-0.2
				c0-0.2-0.2-0.3-0.4-0.2c-0.6,0.4-1.2,0.7-1.8,1c0.1,0.1,0.3,0.1,0.4,0.2c-0.1-0.6-0.2-1.2-0.3-1.8c0-0.1-0.2-0.2-0.4-0.1
				c-0.5,0.3-1,0.7-1.4,1c0.1,0.1,0.3,0.1,0.4,0.2c0-0.4-0.1-0.8-0.3-1.2c-0.1-0.1-0.2-0.2-0.4-0.1c-0.4,0.3-0.7,0.6-1.2,0.3
				c-0.4-0.2-0.3-0.8-0.4-1.2c0-0.2-0.2-0.2-0.4-0.1c-0.5,0.3-1,0.6-1.5,1c0.1,0,0.3,0,0.4,0.1c0-0.1,0-0.3-0.1-0.4
				C30.1,27.8,29.6,27.8,29.6,28.1L29.6,28.1z"/>
		</g>
		<g>
			<path fill="#FF931E" d="M27.1,34.9c0.3,0.8,1.2,1.1,1.9,0.4c-0.1,0-0.3-0.1-0.4-0.1c0.1,0.2,0.1,0.4,0.2,0.6
				c0,0.1,0.2,0.2,0.3,0.2c0.4-0.1,0.7-0.3,1-0.5c-0.1,0-0.2-0.1-0.4-0.1c0.1,0.3,0.2,0.6,0.3,0.9c0.1,0.3,0.6,0.2,0.5-0.1
				c-0.1-0.3-0.2-0.6-0.3-0.9c-0.1-0.1-0.2-0.2-0.4-0.1c-0.3,0.2-0.6,0.3-0.9,0.4c0.1,0.1,0.2,0.1,0.3,0.2c-0.1-0.2-0.1-0.4-0.2-0.6
				c0-0.2-0.3-0.2-0.4-0.1c-0.3,0.4-0.9,0.3-1-0.2C27.5,34.5,27,34.6,27.1,34.9L27.1,34.9z"/>
		</g>
		<g>
			<path fill="#FF931E" d="M21.5,30.5c0.1,0.5,0.2,1,0.6,1.5c0.1,0.1,0.2,0.1,0.3,0.1c0.3-0.1,0.5-0.3,0.7-0.5
				c-0.1,0-0.3-0.1-0.4-0.1c0,0.3,0.1,0.7,0.4,0.9c0.2,0.2,1.4,0.1,1.4,0c0,0.1,0.1,0.2,0.2,0.2c0.1,0,0.2,0,0.2,0
				c-0.1-0.1-0.2-0.1-0.2-0.2c0.1,0.7,0.9,1.1,1.4,0.5c0.2-0.3-0.2-0.5-0.4-0.3c-0.2-0.1-0.3-0.2-0.5-0.3c0-0.1-0.1-0.2-0.2-0.2
				c-0.1,0-0.2,0-0.2,0c0.1,0.1,0.2,0.2,0.2,0.2c0-0.3-0.1-0.4-0.3-0.6c-0.5-0.3-1.4,0.5-1.5-0.5c0-0.2-0.3-0.2-0.4-0.1
				c-0.2,0.2-0.4,0.3-0.6,0.5c0.1,0,0.2,0.1,0.3,0.1C22.2,31.3,22,31,22,30.5C21.9,30.2,21.4,30.2,21.5,30.5L21.5,30.5z"/>
		</g>
	</g>
</g>
</svg>
